<svg width="40" height="37" viewBox="0 0 40 37" fill="none" xmlns="http://www.w3.org/2000/svg">
<path d="M8.74819 16.8685C8.63893 16.8685 8.52754 16.8398 8.42714 16.7791C8.13082 16.6018 8.0353 16.2179 8.2126 15.9215L10.0876 12.7953C10.2646 12.4999 10.6482 12.4035 10.9451 12.5811C11.2415 12.7584 11.337 13.1423 11.1597 13.4386L9.28469 16.5648C9.1678 16.7605 8.96089 16.8685 8.74819 16.8685Z" fill="#313131"/>
<path d="M31.252 16.8685C31.0393 16.8685 30.8324 16.7605 30.7155 16.5655L28.8405 13.4392C28.6632 13.1429 28.7587 12.759 29.0551 12.5817C29.3514 12.4041 29.735 12.5005 29.9126 12.7959L31.7876 15.9221C31.9649 16.2185 31.8694 16.6024 31.5731 16.7797C31.4721 16.8398 31.3613 16.8685 31.252 16.8685Z" fill="#313131"/>
<path d="M29.3766 13.7423H10.624C10.2786 13.7423 9.99902 13.4627 9.99902 13.1173C9.99902 12.7715 10.2786 12.4923 10.624 12.4923H29.3766C29.7221 12.4923 30.0016 12.7715 30.0016 13.1173C30.0016 13.4627 29.7221 13.7423 29.3766 13.7423Z" fill="#313131"/>
<path d="M17.4995 16.8685C17.4595 16.8685 17.4177 16.8649 17.3765 16.856C17.0384 16.7886 16.8183 16.4593 16.8864 16.1205L17.5114 12.994C17.5785 12.6562 17.9047 12.4334 18.2472 12.5042C18.5853 12.5716 18.8053 12.9009 18.7373 13.2397L18.1123 16.3659C18.0528 16.6634 17.7915 16.8685 17.4995 16.8685Z" fill="#313131"/>
<path d="M22.4995 16.8685C22.2078 16.8685 21.9466 16.6634 21.8877 16.3659L21.2627 13.2397C21.1952 12.9009 21.4146 12.5723 21.7528 12.5042C22.0958 12.434 22.4208 12.6562 22.4886 12.994L23.1136 16.1205C23.181 16.4593 22.9616 16.788 22.6234 16.856C22.5816 16.8649 22.5398 16.8685 22.4995 16.8685Z" fill="#313131"/>
<path d="M17.4985 20.6185C17.1531 20.6185 16.8735 20.3393 16.8735 19.9935V16.2435C16.8735 15.8977 17.1531 15.6185 17.4985 15.6185C17.8443 15.6185 18.1235 15.8977 18.1235 16.2435V19.9935C18.1235 20.3393 17.8443 20.6185 17.4985 20.6185Z" fill="#313131"/>
<path d="M22.5 20.6185C22.1542 20.6185 21.875 20.3393 21.875 19.9935V16.2435C21.875 15.8977 22.1542 15.6185 22.5 15.6185C22.8455 15.6185 23.125 15.8977 23.125 16.2435V19.9935C23.125 20.3393 22.8455 20.6185 22.5 20.6185Z" fill="#313131"/>
<path d="M22.5008 20.6185C22.4507 20.6185 22.3995 20.6124 22.3488 20.5999L19.8488 19.9749C19.5137 19.8909 19.3102 19.5516 19.3938 19.2171C19.4768 18.8817 19.8155 18.6772 20.1512 18.7621L22.6512 19.3871C22.9863 19.471 23.1902 19.8104 23.1062 20.1448C23.0351 20.4299 22.7806 20.6185 22.5008 20.6185Z" fill="#313131"/>
<path d="M17.4981 20.6185C17.2183 20.6185 16.9638 20.429 16.8926 20.1448C16.8081 19.8104 17.012 19.471 17.3477 19.3871L19.8489 18.7621C20.1827 18.6766 20.5227 18.8817 20.6063 19.2171C20.6909 19.5516 20.487 19.8909 20.1513 19.9749L17.6501 20.5999C17.5994 20.6124 17.5482 20.6185 17.4981 20.6185Z" fill="#313131"/>
<path d="M25.6277 28.1196H14.3726C14.0271 28.1196 13.7476 27.8404 13.7476 27.4946C13.7476 27.1492 14.0271 26.8696 14.3726 26.8696H25.6277C25.9731 26.8696 26.2527 27.1492 26.2527 27.4946C26.2527 27.8404 25.9731 28.1196 25.6277 28.1196Z" fill="#313131"/>
<path d="M25.6277 25.6248H14.3726C14.0271 25.6248 13.7476 25.3453 13.7476 24.9998C13.7476 24.6541 14.0271 24.3748 14.3726 24.3748H25.6277C25.9731 24.3748 26.2527 24.6541 26.2527 24.9998C26.2527 25.3453 25.9731 25.6248 25.6277 25.6248Z" fill="#313131"/>
<path d="M22.5013 30.6209H17.4985C17.1531 30.6209 16.8735 30.3416 16.8735 29.9959C16.8735 29.6504 17.1531 29.3708 17.4985 29.3708H22.5013C22.8467 29.3708 23.1263 29.6504 23.1263 29.9959C23.1263 30.3416 22.8467 30.6209 22.5013 30.6209Z" fill="#313131"/>
<path d="M20 36.8747C11.7255 36.8747 4.50757 31.2858 2.44612 23.2829C2.36006 22.9491 2.56178 22.6079 2.89625 22.5215C3.22737 22.4379 3.5713 22.6372 3.65736 22.9716C5.57568 30.4215 12.2962 35.6248 20 35.6248C29.3048 35.6248 36.8749 28.0546 36.8749 18.7499C36.8749 18.4041 37.1541 18.1249 37.4999 18.1249C37.8454 18.1249 38.1249 18.4041 38.1249 18.7499C38.1249 28.7434 29.9935 36.8747 20 36.8747Z" fill="#313131"/>
<path d="M2.5 18.7499C2.15423 18.7499 1.875 18.4703 1.875 18.1249C1.875 8.13105 10.006 0 19.9999 0C28.274 0 35.492 5.58864 37.5535 13.5915C37.6395 13.9254 37.4378 14.2666 37.1033 14.3529C36.7741 14.4399 36.4289 14.2373 36.3422 13.9028C34.4239 6.4529 27.7034 1.24999 19.9999 1.24999C10.6948 1.24999 3.12499 8.81982 3.12499 18.1249C3.12499 18.4703 2.84545 18.7499 2.5 18.7499Z" fill="#313131"/>
<path d="M2.50023 18.7499C2.34001 18.7499 2.1801 18.6886 2.05834 18.5665L0.183334 16.6915C-0.0611115 16.4473 -0.0611115 16.0521 0.183334 15.808C0.427475 15.5636 0.822678 15.5636 1.06682 15.808L2.94182 17.683C3.18627 17.9271 3.18627 18.3223 2.94182 18.5665C2.82006 18.6886 2.66014 18.7499 2.50023 18.7499Z" fill="#313131"/>
<path d="M2.50023 18.7499C2.34001 18.7499 2.1801 18.6886 2.05833 18.5665C1.81389 18.3223 1.81389 17.9271 2.05833 17.683L3.93334 15.808C4.17748 15.5636 4.57268 15.5636 4.81682 15.808C5.06127 16.0521 5.06127 16.4473 4.81682 16.6915L2.94182 18.5665C2.82005 18.6886 2.66014 18.7499 2.50023 18.7499Z" fill="#313131"/>
<path d="M39.3752 20.6249C39.215 20.6249 39.0551 20.5635 38.9333 20.4415L37.0583 18.5665C36.8139 18.3223 36.8139 17.9271 37.0583 17.683C37.3025 17.4385 37.6977 17.4385 37.9418 17.683L39.8168 19.558C40.0613 19.8021 40.0613 20.1973 39.8168 20.4415C39.6951 20.5635 39.5351 20.6249 39.3752 20.6249Z" fill="#313131"/>
<path d="M35.6252 20.6249C35.465 20.6249 35.3051 20.5635 35.1833 20.4415C34.9389 20.1973 34.9389 19.8021 35.1833 19.558L37.0583 17.683C37.3025 17.4385 37.6977 17.4385 37.9418 17.683C38.1863 17.9271 38.1863 18.3223 37.9418 18.5665L36.0668 20.4415C35.9451 20.5635 35.7851 20.6249 35.6252 20.6249Z" fill="#313131"/>
<path d="M8.74902 32.7778C8.40356 32.7778 8.12402 32.4983 8.12402 32.1528V16.2435C8.12402 15.8977 8.40356 15.6185 8.74902 15.6185C9.09478 15.6185 9.37401 15.8977 9.37401 16.2435V32.1528C9.37401 32.4983 9.09478 32.7778 8.74902 32.7778Z" fill="#313131"/>
<path d="M31.2515 32.779C30.9057 32.779 30.6265 32.4998 30.6265 32.154V16.2435C30.6265 15.8977 30.9057 15.6185 31.2515 15.6185C31.5969 15.6185 31.8765 15.8977 31.8765 16.2435V32.154C31.8765 32.4998 31.5969 32.779 31.2515 32.779Z" fill="#313131"/>
<path d="M31.2516 16.8685H8.74902C8.40356 16.8685 8.12402 16.5893 8.12402 16.2435C8.12402 15.8977 8.40356 15.6185 8.74902 15.6185H31.2516C31.5971 15.6185 31.8766 15.8977 31.8766 16.2435C31.8766 16.5893 31.5971 16.8685 31.2516 16.8685Z" fill="#313131"/>
</svg>
