<svg width="40" height="40" viewBox="0 0 40 40" fill="none" xmlns="http://www.w3.org/2000/svg">
<path d="M29.1305 19.3529C29.1312 18.6984 28.8325 18.0798 28.3199 17.673C28.8605 17.036 28.9819 16.1429 28.6309 15.3849C28.2795 14.6265 27.5198 14.1415 26.6845 14.1422H21.9185L22.1153 13.6213C22.4253 12.8052 22.5836 11.9395 22.5829 11.0666V10.989C22.5825 10.3253 22.3136 9.68993 21.8368 9.22785C21.3604 8.76577 20.7171 8.51628 20.0538 8.5361C18.7109 8.60753 17.6624 9.72308 17.674 11.0676C17.674 11.7043 16.7792 13.1675 16.0543 14.1432H10.6793C10.3409 14.1432 10.0668 14.4173 10.0668 14.7557V27.0147C10.0668 27.3531 10.3409 27.6272 10.6793 27.6272H25.7255C26.4992 27.6275 27.2132 27.2109 27.5936 26.5372C27.9736 25.8633 27.9617 25.0369 27.5615 24.3745C28.1767 24.099 28.6264 23.5498 28.7754 22.8922C28.9248 22.2347 28.7556 21.5453 28.3195 21.0313C28.8318 20.6249 29.1305 20.0067 29.1305 19.3529ZM11.2917 15.3685H15.7443V26.4022H11.2917V15.3685ZM26.9856 20.2729H26.6841C26.3458 20.2729 26.0717 20.547 26.0717 20.8854C26.0717 21.2237 26.3458 21.4978 26.6841 21.4978C27.192 21.4978 27.6038 21.9097 27.6038 22.4179C27.6038 22.9257 27.192 23.3376 26.6841 23.3376H25.7255C25.3871 23.3376 25.113 23.612 25.113 23.95C25.113 24.2884 25.3871 24.5625 25.7255 24.5625C26.2333 24.5625 26.6452 24.9743 26.6452 25.4825C26.6452 25.9904 26.2333 26.4022 25.7255 26.4022H16.9693V14.9631C17.4884 14.2765 18.8989 12.2963 18.8989 11.068C18.8828 10.3844 19.4068 9.80886 20.0886 9.76033C20.4215 9.75008 20.7445 9.87517 20.9837 10.1069C21.2226 10.3386 21.3576 10.6575 21.3576 10.9904V11.068C21.3583 11.7925 21.2267 12.5113 20.9697 13.1886L20.4591 14.5404C20.388 14.7287 20.4136 14.9395 20.5281 15.1053C20.6423 15.2707 20.8306 15.3695 21.0319 15.3698H26.6841C27.192 15.3698 27.6038 15.7817 27.6038 16.2895C27.6038 16.7978 27.192 17.2096 26.6841 17.2096C26.3458 17.2096 26.0717 17.4837 26.0717 17.8221C26.0717 18.1604 26.3458 18.4345 26.6841 18.4345H26.9856C27.4938 18.4345 27.9056 18.8463 27.9056 19.3546C27.9056 19.8628 27.4938 20.2746 26.9856 20.2746V20.2729ZM13.0963 22.8509C12.2159 22.8509 11.5026 23.5645 11.5026 24.4446C11.5026 25.325 12.2159 26.0383 13.0963 26.0383C13.9764 26.0383 14.69 25.325 14.69 24.4446C14.689 23.5649 13.976 22.8519 13.0963 22.8509ZM13.0963 24.813C12.8926 24.813 12.7272 24.6479 12.7275 24.4442C12.7275 24.2405 12.8926 24.0751 13.0963 24.0755C13.3003 24.0755 13.4654 24.2409 13.4651 24.4446C13.4647 24.6483 13.2997 24.813 13.0963 24.813ZM38.5812 18.5418C39.1469 17.6536 39.3331 16.576 39.0987 15.5493C38.8646 14.5229 38.2292 13.6326 37.3344 13.0776C36.4404 12.5198 35.9475 11.4969 36.0689 10.45C36.1929 9.40455 35.8932 8.35257 35.2366 7.52958C34.5801 6.70625 33.6214 6.17993 32.5746 6.06782C31.5271 5.95367 30.6395 5.24655 30.2943 4.25096C29.9522 3.25504 29.2259 2.43752 28.2771 1.98057C27.3284 1.52396 26.2361 1.46552 25.2443 1.81925C24.2507 2.17025 23.1437 1.91768 22.401 1.17023C21.6608 0.421405 20.6515 0 19.5985 0C18.5455 0 17.5363 0.421405 16.796 1.17023C16.0533 1.91803 14.946 2.1706 13.9528 1.81925C12.9606 1.46586 11.869 1.5243 10.9202 1.98091C9.97182 2.43786 9.24521 3.25538 8.90309 4.25096C8.55859 5.24689 7.67066 5.9547 6.62313 6.06885C5.57594 6.18095 4.61727 6.70728 3.96107 7.53061C3.30452 8.35394 3.00479 9.40557 3.12851 10.4514C3.25018 11.4979 2.75734 12.5208 1.86361 13.0786C0.968849 13.6336 0.333495 14.5236 0.0993807 15.55C-0.135075 16.5763 0.0511908 17.6536 0.61614 18.5418C1.17972 19.4321 1.17972 20.5675 0.61614 21.4578C0.0508491 22.3464 -0.135417 23.424 0.0986972 24.4504C0.333153 25.4771 0.968508 26.3674 1.86293 26.9224C2.75734 27.4802 3.24984 28.5031 3.12851 29.5496C3.00479 30.5955 3.30452 31.6471 3.96107 32.4704C4.61727 33.2937 5.57594 33.8201 6.62313 33.9322C7.67032 34.046 8.55824 34.7535 8.90309 35.7487C9.24521 36.7446 9.97182 37.5621 10.9206 38.0191C11.8693 38.476 12.9613 38.5341 13.9535 38.1807C14.9467 37.8291 16.054 38.0816 16.7967 38.8298C17.5369 39.5786 18.5462 40 19.5992 40C20.6522 40 21.6615 39.5786 22.4017 38.8298C23.1444 38.082 24.2514 37.8294 25.2449 38.1807C26.2368 38.5341 27.3287 38.4757 28.2771 38.0187C29.2259 37.5621 29.9522 36.7446 30.2943 35.7487C30.6391 34.7531 31.5271 34.0453 32.5746 33.9311C33.6214 33.819 34.5801 33.2927 35.2366 32.4694C35.8932 31.6461 36.1929 30.5944 36.0689 29.5486C35.9475 28.5021 36.44 27.4792 37.3341 26.9214C38.2289 26.3664 38.8642 25.476 39.0987 24.4497C39.3331 23.423 39.1469 22.3454 38.5812 21.4568C38.0183 20.5668 38.0183 19.4321 38.5812 18.5418ZM37.5481 22.1154C37.9377 22.7279 38.0662 23.4705 37.9045 24.178C37.7432 24.8855 37.3051 25.4989 36.6885 25.8817C35.3911 26.691 34.6761 28.1754 34.8525 29.6942C34.9379 30.415 34.7312 31.1399 34.2787 31.7072C33.8262 32.2746 33.1655 32.6372 32.444 32.7144C30.9238 32.8805 29.6357 33.9076 29.1357 35.3526C28.8998 36.0389 28.3992 36.6024 27.7453 36.9172C27.0915 37.232 26.3389 37.2723 25.6554 37.0286C24.2138 36.5184 22.6075 36.8851 21.5299 37.9702C21.0199 38.4863 20.3244 38.7768 19.5985 38.7768C18.8729 38.7768 18.1774 38.4863 17.6672 37.9702C16.5902 36.8844 14.9832 36.5177 13.5416 37.0286C12.8581 37.2723 12.1055 37.232 11.4517 36.9172C10.7979 36.6024 10.2972 36.0389 10.0617 35.3526C9.56169 33.9076 8.27321 32.8805 6.75335 32.7144C6.03152 32.6372 5.37088 32.2746 4.91837 31.7072C4.46586 31.1399 4.25943 30.415 4.34488 29.6942C4.52123 28.1754 3.80658 26.6907 2.50888 25.8817C1.89198 25.4989 1.45417 24.8855 1.29251 24.178C1.13119 23.4705 1.2597 22.7279 1.64932 22.1154C2.46718 20.8238 2.46718 19.1762 1.64932 17.8843C1.2597 17.2721 1.13119 16.5295 1.29251 15.8217C1.45417 15.1142 1.89198 14.5007 2.50888 14.1183C3.80624 13.309 4.52123 11.8246 4.34522 10.3058C4.25977 9.585 4.46621 8.8601 4.91871 8.29276C5.37122 7.72508 6.03186 7.36246 6.75369 7.28522C8.27355 7.11946 9.56203 6.09209 10.062 4.64708C10.2975 3.9608 10.7982 3.39756 11.452 3.08244C12.1058 2.76767 12.8584 2.72768 13.542 2.97137C14.9836 3.48129 16.5902 3.11491 17.6675 2.02979C18.1778 1.51371 18.8733 1.2232 19.5989 1.2232C20.3248 1.2232 21.0203 1.51371 21.5302 2.02979C22.6078 3.11491 24.2141 3.48129 25.6557 2.97137C26.3393 2.72768 27.0919 2.76767 27.7457 3.08244C28.3995 3.39756 28.9002 3.9608 29.136 4.64708C29.636 6.09209 30.9242 7.11946 32.4444 7.28522C33.1658 7.36246 33.8265 7.72508 34.279 8.29276C34.7315 8.8601 34.9383 9.585 34.8528 10.3058C34.6761 11.8246 35.3911 13.3093 36.6888 14.1183C37.3054 14.5007 37.7435 15.1142 37.9049 15.8217C38.0665 16.5295 37.938 17.2721 37.5484 17.8843C36.7302 19.1762 36.7302 20.8235 37.5481 22.1154ZM19.5989 5.10129C11.3703 5.10129 4.70032 11.772 4.70032 20.0002C4.70032 28.2283 11.371 34.8987 19.5992 34.8987C27.8277 34.8987 34.4977 28.2283 34.4977 19.9998C34.4885 11.7754 27.8233 5.11052 19.5989 5.10129ZM19.5989 33.6741C12.0471 33.6738 5.92523 27.552 5.92523 20.0002C5.92523 12.4484 12.0471 6.32655 19.5989 6.32655C27.1507 6.3262 33.2728 12.448 33.2728 19.9998C33.2643 27.5482 27.1472 33.6652 19.5989 33.6738V33.6741Z" fill="#313131"/>
</svg>
