<svg width="37" height="37" viewBox="0 0 37 37" fill="none" xmlns="http://www.w3.org/2000/svg">
<path d="M20.5961 27.6257C20.8335 27.8038 21.1642 27.7875 21.3829 27.5869L28.7827 20.8038C29.0337 20.5735 29.0505 20.1834 28.8203 19.9324C28.5901 19.6815 28.2 19.6646 27.949 19.8948L20.9266 26.3308L18.8695 24.7891C18.597 24.5848 18.2105 24.64 18.0062 24.9125C17.8018 25.1849 17.8571 25.5714 18.1295 25.7758L20.5961 27.6257Z" fill="#313131"/>
<path d="M0.616646 9.24969C1.48843 9.31289 2.32493 9.61971 3.03082 10.1352C3.39012 10.4009 3.71148 10.7144 3.986 11.0669C1.61561 15.2373 0.279957 19.1876 0.0320656 22.8104C-0.208369 26.4482 1.03192 30.0287 3.4711 32.7384C5.76987 35.3331 9.03252 36.8712 12.497 36.9932C12.6419 36.9981 12.7862 37 12.9286 37C16.3529 36.9967 19.6356 35.6334 22.055 33.2101C24.2695 33.5464 26.5319 33.0968 28.4496 31.9392L32.7871 36.2761C33.7582 37.1874 35.2774 37.1632 36.2191 36.2215C37.1608 35.2798 37.1849 33.7607 36.2736 32.7895L31.9367 28.4521C33.7458 25.4029 33.7779 21.617 32.0207 18.5376C30.2635 15.4583 26.9879 13.5599 23.4424 13.5662C23.3592 13.5662 23.2784 13.5767 23.1958 13.5785C20.7601 8.72163 17.5959 4.26581 13.8129 0.365672C13.581 0.13142 13.265 -0.000264746 12.9354 3.99625e-07H12.9274C12.6016 0.00266353 12.2906 0.135958 12.0641 0.369988C10.5352 1.94085 9.10435 3.6042 7.77961 5.35064C7.06551 3.87781 6.72335 2.25237 6.78311 0.616646C6.78311 0.276082 6.50703 3.99625e-07 6.16646 3.99625e-07C5.8259 3.99625e-07 5.54982 0.276082 5.54982 0.616646C5.54982 7.87395 0.826306 8.0164 0.616646 8.0164C0.276082 8.0164 0 8.29248 0 8.63305C0 8.97361 0.276082 9.24969 0.616646 9.24969ZM35.4035 33.6609C35.8513 34.1474 35.8357 34.9006 35.3681 35.3681C34.9006 35.8357 34.1474 35.8513 33.6609 35.4035L29.4899 31.2325C30.1409 30.7263 30.7263 30.1409 31.2325 29.4899L35.4035 33.6609ZM32.0847 23.4424C32.0847 26.9382 29.9789 30.0898 26.7492 31.4275C23.5194 32.7652 19.8019 32.0256 17.3301 29.5537C14.8583 27.0817 14.119 23.3641 15.457 20.1345C16.7949 16.9049 19.9466 14.7993 23.4424 14.7995C28.2134 14.8049 32.0796 18.6714 32.0847 23.4424ZM12.9379 1.23638C16.5166 4.92886 19.5312 9.12902 21.8842 13.7013C17.3377 14.4226 13.8942 18.1921 13.586 22.7851C13.2777 27.3781 16.1867 31.5739 20.596 32.8962C18.3702 34.8378 15.4901 35.8614 12.5383 35.7599C9.40913 35.6486 6.46262 34.2586 4.38682 31.9145C2.1707 29.4529 1.04381 26.1999 1.26227 22.8948C1.4855 19.6315 2.65651 16.0642 4.72289 12.2824C5.30918 13.6617 5.59123 15.1512 5.54982 16.6494C5.54982 16.99 5.8259 17.2661 6.16646 17.2661C6.50703 17.2661 6.78311 16.99 6.78311 16.6494C6.78311 9.3835 11.5177 9.24969 11.7163 9.24969C12.0568 9.24969 12.3329 8.97361 12.3329 8.63305C12.3329 8.29248 12.0568 8.0164 11.7163 8.0164C10.8445 7.9532 10.008 7.64638 9.30211 7.1309C9.01746 6.91867 8.75692 6.67591 8.52513 6.40695C9.88331 4.59032 11.3573 2.86321 12.9379 1.23638ZM6.16646 4.73831C6.40826 5.44839 6.75495 6.11829 7.19503 6.72576C7.20437 6.74178 7.21467 6.75722 7.22586 6.77201C7.80712 7.56024 8.5682 8.19828 9.44578 8.63305C7.8716 9.43521 6.6888 10.84 6.16646 12.5278C5.94494 11.8851 5.63797 11.2751 5.25383 10.7142C5.23337 10.6755 5.20854 10.6393 5.17983 10.6063C4.59103 9.76863 3.80316 9.09053 2.88714 8.63305C4.46132 7.83088 5.64412 6.42611 6.16646 4.73831Z" fill="#313131"/>
<path d="M11.21 32.6921C4.98374 31.5599 4.33873 24.8971 4.31653 24.614C4.28809 24.2735 3.98896 24.0204 3.64839 24.0489C3.30783 24.0773 3.0548 24.3764 3.08324 24.717C3.09002 24.7953 3.82321 32.6027 10.9874 33.905C11.0244 33.9119 11.062 33.9154 11.0996 33.9155C11.4188 33.9155 11.6852 33.6719 11.7137 33.354C11.7422 33.0361 11.5235 32.749 11.2094 32.6921H11.21Z" fill="#313131"/>
</svg>
