<svg width="42" height="38" viewBox="0 0 42 38" fill="none" xmlns="http://www.w3.org/2000/svg">
<path d="M41.8943 7.89345H41.8936L41.8949 7.90451C41.9017 7.96596 41.9017 8.02817 41.8949 8.08962L41.8943 8.08955V8.10068V28.8225C41.893 29.124 41.7324 29.3863 41.5001 29.4949L41.4998 29.495L25.7034 36.9543C25.7032 36.9544 25.703 36.9545 25.7028 36.9546C25.6367 36.9843 25.5671 37.0007 25.4968 37.0034C25.4265 37.0007 25.3568 36.9843 25.2908 36.9546C25.2906 36.9545 25.2904 36.9544 25.2902 36.9543L9.49378 29.495L9.49341 29.4949C9.26118 29.3864 9.10068 29.1241 9.09929 28.8227C9.09929 28.8226 9.09929 28.8225 9.09929 28.8225L9.09929 25.3581V25.2581H8.99929H2.28079C1.94532 25.2581 1.6521 24.9443 1.6521 24.5292C1.6521 24.1142 1.94532 23.8004 2.28079 23.8004H8.99929H9.09929V23.7004V20.8656V20.7656H8.99929H6.1647C5.82922 20.7656 5.53601 20.4517 5.53601 20.0367C5.53601 19.6217 5.82922 19.3078 6.1647 19.3078H8.99929H9.09929V19.2078V16.373V16.273H8.99929H0.828688V16.2652V16.1652H0.728688C0.393215 16.1652 0.1 15.8514 0.1 15.4363C0.1 15.0213 0.393215 14.7075 0.728688 14.7075H9.08673H9.18673V14.6075V7.97634H9.18735L9.18612 7.96529C9.17929 7.90384 9.17929 7.84163 9.18612 7.78017L9.18673 7.78024V7.76912V7.72011C9.19933 7.68595 9.21411 7.65301 9.23096 7.62152L9.26952 7.56305L9.35017 7.46366L9.38658 7.42816L9.44658 7.39665H9.45836H9.48019L9.50002 7.38756L25.2907 0.151366L25.2908 0.151307C25.4394 0.0829389 25.6048 0.0828977 25.7535 0.151183C25.7536 0.151225 25.7537 0.151266 25.7538 0.151307L41.5805 7.51166L41.6005 7.52099H41.6226H41.6344L41.6944 7.55249L41.7308 7.588L41.8115 7.68737L41.85 7.74586C41.8669 7.77735 41.8817 7.81028 41.8943 7.84445V7.89345ZM25.5601 1.65209L25.5186 1.6332L25.4771 1.65214L11.6102 7.98485L11.4146 8.07416L11.6089 8.16618L17.8392 11.117L17.8823 11.1375L17.9254 11.1168L31.5518 4.56026L31.7443 4.46764L31.5499 4.37913L25.5601 1.65209ZM24.7253 35.1382L24.8681 35.2059V35.0478V16.0746V16.0113L24.8109 15.9842L16.0667 11.8398L16.0664 11.8397L10.4992 9.22037L10.3567 9.15329V9.31085V14.7152V14.8152H10.4567H11.914C12.2495 14.8152 12.5427 15.1291 12.5427 15.5441C12.5427 15.9591 12.2495 16.273 11.914 16.273H10.4567H10.3567V16.373V19.1995V19.2995H10.4567H17.3792C17.7147 19.2995 18.0079 19.6134 18.0079 20.0284C18.0079 20.4434 17.7147 20.7573 17.3792 20.7573H10.4567H10.3567V20.8573V23.6921V23.7921H10.4567H13.4807C13.8162 23.7921 14.1094 24.1059 14.1094 24.521C14.1094 24.936 13.8162 25.2498 13.4807 25.2498H10.4567H10.3567V25.3498V28.2675V28.3308L10.4139 28.3579L24.7253 35.1382ZM25.4829 14.764L25.5258 14.7845L25.5688 14.7641L30.7279 12.3189L30.7281 12.3188L39.4213 8.17436L39.6144 8.08231L39.4199 7.99319L33.452 5.25786L33.4092 5.23826L33.3669 5.2587L19.7258 11.8401L19.538 11.9307L19.7263 12.0204L25.4829 14.764ZM26.1473 35.0478V35.2057L26.2901 35.1382L40.6306 28.3579L40.688 28.3308L40.6879 28.2673L40.6515 9.29408L40.6512 9.13628L40.5086 9.20393L30.3071 14.0446L30.307 14.0446L26.2046 15.9842L26.1473 16.0112V16.0746V35.0478Z" fill="#313131" stroke="#E9F4FA" stroke-width="0.2"/>
</svg>
