<svg width="33" height="33" viewBox="0 0 33 33" fill="none" xmlns="http://www.w3.org/2000/svg">
<path d="M33 2.24775C33.0025 1.64518 32.7699 1.07948 32.3452 0.65473C31.9205 0.229984 31.3537 -0.00217603 30.7522 1.5373e-05C30.1514 0.00252904 29.5858 0.238621 29.1595 0.664785C28.9791 0.845253 28.6508 1.23507 28.4712 1.45143C28.2827 1.67863 28.3139 2.01572 28.5411 2.20425C28.7682 2.39284 29.1053 2.36164 29.2939 2.13444C29.5751 1.79568 29.8076 1.52891 29.9156 1.42088C30.141 1.19549 30.4397 1.07058 30.7567 1.06923C30.7584 1.06923 30.76 1.06923 30.7618 1.06923C31.0752 1.06923 31.3689 1.1904 31.5892 1.41076C31.8107 1.63229 31.9321 1.92794 31.9307 2.24324C31.9294 2.56016 31.8044 2.85883 31.579 3.08435C31.3772 3.28616 30.6836 3.83639 29.6898 4.53062C29.1019 3.52554 28.0116 2.84846 26.7656 2.84846H18.9368C17.8801 2.84846 16.8866 3.25999 16.1392 4.00719L0.490681 19.656C0.174281 19.9724 0 20.393 0 20.8405C0 21.2879 0.174281 21.7087 0.490681 22.025L10.9751 32.5094C11.3017 32.836 11.7306 32.9992 12.1596 32.9992C12.5886 32.9992 13.0176 32.8359 13.3441 32.5094L28.9928 16.8607C29.74 16.1135 30.1515 15.12 30.1515 14.0632V6.2345C30.1515 6.00343 30.1281 5.77785 30.0838 5.55967C31.215 4.78127 32.0454 4.13011 32.3351 3.84045C32.7614 3.41429 32.9975 2.84865 33 2.24775ZM29.0823 14.0632C29.0823 14.8343 28.782 15.5594 28.2368 16.1046L12.5881 31.7533C12.3519 31.9896 11.9674 31.9896 11.7312 31.7533L1.24678 21.269C1.13238 21.1546 1.06928 21.0024 1.06928 20.8405C1.06928 20.6786 1.13231 20.5265 1.24678 20.4121L16.8954 4.76342C17.4407 4.21815 18.1657 3.91786 18.9368 3.91786H26.7655C27.6446 3.91786 28.411 4.41009 28.8034 5.13338C28.1719 5.55155 27.4647 5.99621 26.7146 6.43347C26.6912 6.40781 26.6673 6.38242 26.6425 6.3576C25.7669 5.48207 24.3424 5.48207 23.4669 6.3576C22.5913 7.23313 22.5913 8.65768 23.4669 9.53321C23.9046 9.97097 24.4797 10.1898 25.0547 10.1898C25.6296 10.1898 26.2047 9.97097 26.6425 9.53321C27.2269 8.94881 27.4205 8.12001 27.2249 7.37293C27.8773 6.99311 28.5039 6.60491 29.0821 6.22934C29.0821 6.23115 29.0823 6.23282 29.0823 6.23456V14.0632H29.0823ZM24.5772 8.18562C24.6711 8.37234 24.8596 8.48011 25.0552 8.48011C25.136 8.48011 25.218 8.46174 25.2951 8.42294C25.6085 8.26529 25.9208 8.10132 26.23 7.93335C26.2331 8.23854 26.119 8.54469 25.8866 8.77711C25.4279 9.23569 24.6818 9.23569 24.2231 8.77711C23.7646 8.31846 23.7646 7.57235 24.2231 7.1137C24.4525 6.88438 24.7537 6.76978 25.0548 6.76978C25.2933 6.76978 25.5311 6.84287 25.7339 6.98654C25.4313 7.15102 25.1242 7.31209 24.8146 7.46787C24.5507 7.60045 24.4444 7.92188 24.5772 8.18562Z" fill="#313131"/>
</svg>
