<svg width="15" height="15" viewBox="0 0 15 15" fill="none" xmlns="http://www.w3.org/2000/svg">
<path d="M5.77223 15C6.75155 15 7.54544 14.2061 7.54544 13.2268C7.54544 12.2474 6.75155 11.4536 5.77223 11.4536C4.79292 11.4536 3.99902 12.2474 3.99902 13.2268C3.99902 14.2061 4.79292 15 5.77223 15Z" fill="#313131"/>
<path d="M10.947 11.4536C9.96774 11.4536 9.17383 12.2475 9.17383 13.2268C9.17383 14.2061 9.96774 15 10.947 15C11.9263 15 12.7202 14.2061 12.7202 13.2268C12.7202 12.2475 11.9263 11.4536 10.947 11.4536Z" fill="#313131"/>
<path d="M13.9686 9.64415H4.72253L4.54159 8.5947H12.1411C12.3646 8.59537 12.5657 8.45888 12.6477 8.25091L14.4571 3.69123C14.567 3.41232 14.43 3.09709 14.1511 2.98719C14.0872 2.96199 14.0191 2.94916 13.9505 2.94937H3.6007L3.16645 0.452403C3.12185 0.18838 2.89136 -0.00369216 2.62363 5.38553e-05H0.542819C0.243032 5.38553e-05 0 0.243086 0 0.542873C0 0.842661 0.243032 1.08569 0.542819 1.08569H2.17128L3.72736 10.2774C3.77196 10.5415 4.00245 10.7335 4.27018 10.7298H13.9686C14.2683 10.7298 14.5114 10.4868 14.5114 10.187C14.5114 9.88718 14.2683 9.64415 13.9686 9.64415Z" fill="#313131"/>
</svg>
