<svg width="8" height="11" viewBox="0 0 8 11" fill="none" xmlns="http://www.w3.org/2000/svg">
<path d="M4 0C1.79435 0 0 1.79435 0 4C0 5.24056 0.641768 6.6814 1.90767 8.28237C2.83403 9.45381 3.74702 10.2636 3.78533 10.2975C3.90718 10.4048 4.09114 10.4063 4.21467 10.2975C4.25298 10.2636 5.16597 9.45381 6.09233 8.28237C7.35823 6.6814 8 5.24056 8 4C8 1.79435 6.20565 0 4 0V0ZM2.21619 5.67577V4.28464C2.21619 4.19804 2.11461 4.15134 2.04887 4.20769L1.94071 4.30041C1.80469 4.41697 1.59996 4.40116 1.4834 4.26514C1.36685 4.12912 1.38266 3.92439 1.51867 3.80783L3.78898 1.86186C3.9104 1.75787 4.0896 1.75787 4.21102 1.86186L6.48133 3.80783C6.61734 3.92439 6.63315 4.12912 6.5166 4.26514C6.39931 4.40166 6.19474 4.4165 6.05929 4.30041L5.95113 4.20769C5.88539 4.15134 5.78381 4.19804 5.78381 4.28464V5.67577C5.78381 5.8549 5.63862 6.0001 5.45948 6.0001H2.54052C2.36138 6.0001 2.21619 5.8549 2.21619 5.67577Z" fill="#0166B0"/>
<path d="M2.86523 3.55486V5.25009C2.86523 5.30605 2.91062 5.35144 2.96659 5.35144H5.03419C5.09016 5.35144 5.13554 5.30605 5.13554 5.25009V3.55486C5.13554 3.52526 5.12261 3.49717 5.10015 3.47791L4.06635 2.5918C4.0284 2.55926 3.9724 2.55926 3.93443 2.5918L2.90063 3.47791C2.87817 3.49715 2.86523 3.52526 2.86523 3.55486Z" fill="#0166B0"/>
</svg>
