<svg width="8" height="9" viewBox="0 0 8 9" fill="none" xmlns="http://www.w3.org/2000/svg">
<path d="M6.62171 5.776L5.372 5.52571C5.23943 5.49943 5.14286 5.38171 5.14286 5.24571V4.95886C5.22514 4.84457 5.30229 4.692 5.38229 4.53257C5.44343 4.412 5.53543 4.23029 5.57657 4.18743C5.81886 3.95029 6.07714 3.656 6.156 3.27257C6.22743 2.92514 6.156 2.74457 6.07314 2.60171C6.07314 2.32229 6.07314 1.81086 5.976 1.44229C5.96629 0.997143 5.88457 0.745714 5.67943 0.521714C5.53429 0.365143 5.32057 0.328571 5.14914 0.299429C5.08114 0.288 4.988 0.272 4.95543 0.254286C4.65886 0.0902857 4.35771 0.00914286 3.98914 0C3.23486 0.0285714 2.30914 0.506857 1.99943 1.36686C1.90514 1.628 1.91429 2.05657 1.92114 2.40114L1.91314 2.60171C1.84057 2.74457 1.76914 2.92514 1.84114 3.272C1.92 3.65714 2.17829 3.95086 2.41943 4.18686C2.46114 4.23029 2.55429 4.41314 2.616 4.53371C2.69714 4.69257 2.77486 4.84514 2.85714 4.95943V5.24571C2.85714 5.38171 2.76057 5.49943 2.62743 5.52571L1.37771 5.776C0.579429 5.93543 0 6.64229 0 7.45657V8C0 8.31486 0.256571 8.57143 0.571429 8.57143H7.42857C7.74343 8.57143 8 8.31486 8 8V7.45657C8 6.64229 7.42057 5.93543 6.62171 5.776Z" fill="#0166B0"/>
</svg>
