<svg width="14" height="15" viewBox="0 0 14 15" fill="none" xmlns="http://www.w3.org/2000/svg">
<path d="M12.6 1.6944H11.9V0.994417C11.9 0.574427 11.62 0.294434 11.2 0.294434C10.78 0.294434 10.5 0.574427 10.5 0.994417V1.6944H3.5V0.994417C3.5 0.574427 3.22 0.294434 2.8 0.294434C2.38 0.294434 2.1 0.574427 2.1 0.994417V1.6944H0.699999C0.35 1.6944 0 1.97439 0 2.39438V12.1941C0 12.6141 0.35 12.8941 0.699999 12.8941H4.97C4.48 12.0542 4.2 11.0742 4.2 10.0942C4.2 7.01427 6.71999 4.49433 9.79999 4.49433C11.13 4.49433 12.32 4.98432 13.3 5.7543V2.39438C13.3 2.04439 12.95 1.6944 12.6 1.6944Z" fill="#0166B0"/>
<path d="M9.79962 5.89453C7.48961 5.89453 5.59961 7.78452 5.59961 10.0945C5.59961 12.4045 7.48961 14.2945 9.79962 14.2945C12.1096 14.2945 13.9996 12.4045 13.9996 10.0945C13.9996 7.78452 12.1096 5.89453 9.79962 5.89453ZM11.1996 10.7945H9.79962C9.37962 10.7945 9.09962 10.5145 9.09962 10.0945V7.99452C9.09962 7.57452 9.37962 7.29452 9.79962 7.29452C10.2196 7.29452 10.4996 7.57452 10.4996 7.99452V9.39451H11.1996C11.6196 9.39451 11.8996 9.67451 11.8996 10.0945C11.8996 10.5145 11.6196 10.7945 11.1996 10.7945Z" fill="#0166B0"/>
</svg>
