<svg width="15" height="15" viewBox="0 0 15 15" fill="none" xmlns="http://www.w3.org/2000/svg">
<path d="M14.4481 11.0085L12.3732 8.91518C11.6321 8.16758 10.3724 8.46665 10.0759 9.43851C9.85363 10.1114 9.11258 10.4852 8.44564 10.3356C6.96354 9.96183 4.96272 8.01806 4.5922 6.44809C4.36988 5.77522 4.81451 5.02761 5.48145 4.80336C6.44481 4.50432 6.74123 3.23339 6.00018 2.48578L3.92525 0.392492C3.33242 -0.130831 2.44316 -0.130831 1.92443 0.392492L0.51644 1.81294C-0.891548 3.30815 0.66465 7.27045 4.14757 10.7842C7.63049 14.2979 11.558 15.9427 13.0401 14.4475L14.4481 13.027C14.9669 12.4289 14.9669 11.5318 14.4481 11.0085Z" fill="#313131"/>
</svg>
