<svg width="24" height="24" viewBox="0 0 24 24" fill="none" xmlns="http://www.w3.org/2000/svg">
<circle cx="12" cy="12" r="12" fill="white"/>
<path d="M17.6 6.6944H16.9V5.99442C16.9 5.57443 16.62 5.29443 16.2 5.29443C15.78 5.29443 15.5 5.57443 15.5 5.99442V6.6944H8.5V5.99442C8.5 5.57443 8.22 5.29443 7.8 5.29443C7.38 5.29443 7.1 5.57443 7.1 5.99442V6.6944H5.7C5.35 6.6944 5 6.97439 5 7.39438V17.1941C5 17.6141 5.35 17.8941 5.7 17.8941H9.97C9.48 17.0542 9.2 16.0742 9.2 15.0942C9.2 12.0143 11.72 9.49433 14.8 9.49433C16.13 9.49433 17.32 9.98432 18.3 10.7543V7.39438C18.3 7.04439 17.95 6.6944 17.6 6.6944Z" fill="#3293D0"/>
<path d="M14.7996 10.8945C12.4896 10.8945 10.5996 12.7845 10.5996 15.0945C10.5996 17.4045 12.4896 19.2945 14.7996 19.2945C17.1096 19.2945 18.9996 17.4045 18.9996 15.0945C18.9996 12.7845 17.1096 10.8945 14.7996 10.8945ZM16.1996 15.7945H14.7996C14.3796 15.7945 14.0996 15.5145 14.0996 15.0945V12.9945C14.0996 12.5745 14.3796 12.2945 14.7996 12.2945C15.2196 12.2945 15.4996 12.5745 15.4996 12.9945V14.3945H16.1996C16.6196 14.3945 16.8996 14.6745 16.8996 15.0945C16.8996 15.5145 16.6196 15.7945 16.1996 15.7945Z" fill="#3293D0"/>
</svg>
