<svg width="24" height="24" viewBox="0 0 24 24" fill="none" xmlns="http://www.w3.org/2000/svg">
<circle cx="12" cy="12" r="12" fill="white"/>
<path d="M19.8125 15.5407L17.5417 13.7265C16.7306 13.0786 15.3519 13.3378 15.0275 14.18C14.7842 14.7632 13.9731 15.0872 13.2432 14.9575C11.6212 14.6336 9.43138 12.949 9.02586 11.5883C8.78256 11.0052 9.26917 10.3573 9.9991 10.1629C11.0534 9.90374 11.3778 8.80227 10.5668 8.15435L8.29594 6.34016C7.64712 5.88661 6.67388 5.88661 6.10616 6.34016L4.56521 7.57122C3.02426 8.86706 4.72742 12.3011 8.53925 15.3463C12.3511 18.3915 16.6495 19.817 18.2716 18.5211L19.8125 17.2901C20.3803 16.7717 20.3803 15.9942 19.8125 15.5407Z" fill="#0166B0"/>
</svg>
