<svg width="82" height="23" viewBox="0 0 82 23" fill="none" xmlns="http://www.w3.org/2000/svg">
<path d="M64.0168 4.02635C62.0037 4.02635 60.3932 4.56318 59.0511 4.83159L58.6485 7.91835C59.3195 7.64993 61.1984 7.11311 62.8089 6.9789C64.4194 6.9789 65.3588 7.24731 65.0904 8.72359C60.259 8.72359 57.038 9.66303 56.367 12.884C55.4275 18.2523 61.3326 18.3865 63.6142 15.9707L63.3457 17.447H67.6403L69.5192 8.72359C70.1903 5.10001 66.9693 3.89215 64.0168 4.02635ZM64.2852 13.0182C64.0168 14.0919 63.0773 14.4945 62.0037 14.6287C61.0642 14.6287 60.259 14.0919 60.7958 13.0182C61.3326 12.213 62.5405 12.213 63.4799 12.213C63.7484 12.213 64.151 12.213 64.5536 12.213C64.4194 12.0788 64.2852 12.6156 64.2852 13.0182Z" fill="#32A6CE"/>
<path d="M58.6485 7.91807C59.3195 7.64965 61.1984 7.11282 62.8089 6.97862C64.4194 6.97862 65.3588 7.24703 65.0904 8.7233C60.259 8.7233 57.038 9.66275 56.367 12.8837C55.4275 18.252 61.3326 18.3862 63.6142 15.9705L63.3457 17.4467H67.6403L69.5192 8.7233C70.3245 5.09972 66.9693 4.16028 64.0168 4.16028L58.6485 7.91807ZM64.2852 13.0179C64.0168 14.0916 63.0773 14.4942 62.0037 14.6284C61.0642 14.6284 60.259 14.0916 60.7958 13.0179C61.3326 12.2127 62.5405 12.2127 63.4799 12.2127C63.7484 12.2127 64.151 12.2127 64.5536 12.2127C64.4194 12.0785 64.2852 12.6153 64.2852 13.0179Z" fill="#1A80AD"/>
<path d="M73.1427 0L69.6533 17.4469H73.9479L77.5715 0H73.1427Z" fill="#32A6CE"/>
<path d="M76.2294 0L69.6533 17.4469H73.9479L77.5715 0H73.1427H76.2294Z" fill="#1A80AD"/>
<path d="M53.1458 0H45.2277L41.7383 17.4469H46.4355L47.6434 12.0786H50.9985C54.2195 12.0786 56.9036 10.1997 57.5747 6.84454C58.2457 2.95255 55.4274 0 53.1458 0ZM53.0116 6.0393C52.7432 7.24716 51.5354 8.0524 50.3275 8.0524H48.1802L49.1196 4.0262H51.4012C52.609 4.0262 53.28 4.83144 53.0116 6.0393Z" fill="#32A6CE"/>
<path d="M53.1453 0H47.777L41.6035 17.4469H46.3007L47.5086 12.0786H50.8638C54.0847 12.0786 56.7689 10.1997 57.4399 6.84454C58.2451 2.95255 55.4268 0 53.1453 0ZM53.0111 6.0393C52.7427 7.24716 51.5348 8.0524 50.3269 8.0524H48.1796L49.1191 4.0262H51.4006C52.6085 4.0262 53.2795 4.83144 53.0111 6.0393Z" fill="#1A80AD"/>
<path d="M22.1449 4.02635C20.1319 4.02635 18.5214 4.56318 17.3135 4.83159L16.9109 7.91835C17.4477 7.64993 19.4608 7.11311 21.0713 6.9789C22.6818 6.9789 23.6212 7.24731 23.3528 8.72359C18.6556 8.72359 15.4346 9.66303 14.7636 12.884C13.8241 18.2523 19.595 18.3865 21.8765 15.9707L21.6081 17.447H25.9027L27.7816 8.72359C28.4527 5.10001 25.0975 3.89215 22.1449 4.02635ZM22.5476 13.0182C22.2792 14.0919 21.3397 14.4945 20.2661 14.6287C19.3266 14.6287 18.5214 14.0919 19.1924 13.0182C19.7292 12.213 20.9371 12.213 21.7423 12.213C22.145 12.213 22.4134 12.213 22.816 12.213C22.6818 12.0788 22.5476 12.6156 22.5476 13.0182Z" fill="#21789E"/>
<path d="M17.0437 7.91807C17.5805 7.64965 19.5936 7.11282 21.2041 6.97862C22.8146 6.97862 23.754 7.24703 23.4856 8.7233C18.7884 8.7233 15.5674 9.66275 14.8964 12.8837C13.957 18.252 19.7278 18.3862 22.0093 15.9705L21.6067 17.4467H25.9013L27.7802 8.7233C28.5855 5.09972 25.2303 4.16028 22.2778 4.16028L17.0437 7.91807ZM22.5462 13.0179C22.2778 14.0916 21.3383 14.4942 20.2647 14.6284C19.3252 14.6284 18.52 14.0916 19.191 13.0179C19.7278 12.2127 20.9357 12.2127 21.7409 12.2127C22.1436 12.2127 22.412 12.2127 22.8146 12.2127C22.6804 12.0785 22.5462 12.6153 22.5462 13.0179Z" fill="#1A5B80"/>
<path d="M29.5247 4.02612H33.8193L34.4903 11.5417L38.7849 4.02612H43.2138L33.0141 22.8151H28.1826L31.2694 17.1784L29.5247 4.02612Z" fill="#21789E"/>
<path d="M33.8193 4.29454L34.4903 11.6759L38.7849 4.02612H43.2138L33.0141 22.8151H28.1826L31.2694 17.3126" fill="#1A5B80"/>
<path d="M11.5418 0H3.48937L0 17.4469H4.69723L5.90509 12.0786H9.26026C12.4812 12.0786 15.1653 10.1997 15.8364 6.84454C16.6416 2.95255 13.8233 0 11.5418 0ZM11.4076 6.0393C11.1391 7.24716 9.93129 8.0524 8.72343 8.0524H6.57612L7.51557 4.0262H9.79708C11.0049 4.0262 11.676 4.83144 11.4076 6.0393Z" fill="#21789E"/>
<path d="M11.5418 0H7.91819L0 17.4469H4.69723L5.90509 12.0786H9.26026C12.4812 12.0786 15.1653 10.1997 15.8364 6.84454C16.6416 2.95255 13.8233 0 11.5418 0ZM11.4076 6.0393C11.1391 7.24716 9.93129 8.0524 8.72343 8.0524H6.57612L7.51557 4.0262H9.79708C11.0049 4.0262 11.676 4.83144 11.4076 6.0393Z" fill="#1A5B80"/>
<path d="M21.3387 8.72345C17.7152 8.99186 15.2994 10.0655 14.7626 12.7496C13.8232 18.1179 19.594 18.2521 21.8756 15.8364L21.6071 17.4469H25.9018L26.5728 14.2259L21.3387 8.72345ZM22.5466 13.0181C22.2782 14.0917 21.3387 14.4943 20.2651 14.6285C19.3256 14.6285 18.5204 14.0917 19.1914 13.0181C19.7283 12.2128 20.9361 12.2128 21.7414 12.2128C22.144 12.2128 22.4124 12.2128 22.815 12.2128C22.6808 12.0786 22.5466 12.6154 22.5466 13.0181Z" fill="#06435E"/>
<path d="M34.7586 11.4076L34.4902 11.8102L37.3086 14.4944L43.2137 4.02625H38.7848L34.7586 11.4076Z" fill="#06435E"/>
<path d="M4.69696 17.4466L5.90482 12.0783L0.402344 17.4466H4.69696Z" fill="#06435E"/>
<path d="M46.3005 17.4471L47.5083 11.8104V11.9446L42.0059 17.4471H46.3005Z" fill="#2273AA"/>
<path d="M63.0759 8.72302C59.4524 8.99144 57.0366 10.0651 56.4998 12.7492C55.5604 18.1175 61.4655 18.2517 63.747 15.836L63.3443 17.4465H67.639L68.31 14.2255L63.0759 8.72302ZM64.2838 13.0176C64.0154 14.0913 63.0759 14.4939 62.0023 14.6281C61.0628 14.6281 60.2576 14.0913 60.7944 13.0176C61.3312 12.2124 62.5391 12.2124 63.4785 12.2124C63.747 12.2124 64.1496 12.2124 64.5522 12.2124C64.418 12.0782 64.2838 12.615 64.2838 13.0176Z" fill="#2273AA"/>
<path d="M72.7391 9.52881L69.6523 17.447H73.947L75.1548 12.0787L72.7391 9.52881Z" fill="#2273AA"/>
<path d="M78.5109 2.81869V0.939801H77.8398V0.671387H79.5845V0.939801H78.9135V2.81869H78.5109Z" fill="#32A6CE"/>
<path d="M79.8535 2.81856V0.671253H80.2561L80.793 2.14753C80.793 2.28173 80.9272 2.41594 80.9272 2.41594C80.9272 2.28173 80.9272 2.28173 81.0614 2.01332L81.5982 0.537048H82.0008V2.68435H81.7324V0.80546L81.0614 2.68435H80.6588L79.9877 0.80546V2.68435H79.8535V2.81856Z" fill="#32A6CE"/>
</svg>
