<svg width="17" height="13" viewBox="0 0 17 13" fill="none" xmlns="http://www.w3.org/2000/svg">
<path d="M15.8125 9.54068L13.5417 7.72649C12.7306 7.07857 11.3519 7.33776 11.0275 8.18004C10.7842 8.7632 9.97313 9.08716 9.24321 8.95755C7.62115 8.63359 5.43138 6.94898 5.02586 5.58834C4.78256 5.00519 5.26917 4.35726 5.9991 4.16291C7.05343 3.90374 7.37785 2.80227 6.56682 2.15435L4.29594 0.34016C3.64712 -0.113387 2.67388 -0.113387 2.10616 0.34016L0.565211 1.57122C-0.975742 2.86706 0.727417 6.30106 4.53925 9.3463C8.35108 12.3915 12.6495 13.817 14.2716 12.5211L15.8125 11.2901C16.3803 10.7717 16.3803 9.99423 15.8125 9.54068Z" fill="#0166B0"/>
</svg>
