<svg width="11" height="12" viewBox="0 0 11 12" fill="none" xmlns="http://www.w3.org/2000/svg">
<path d="M4.37344 11.3703C5.11578 11.3703 5.71757 10.7686 5.71757 10.0262C5.71757 9.28386 5.11578 8.68207 4.37344 8.68207C3.63109 8.68207 3.0293 9.28386 3.0293 10.0262C3.0293 10.7686 3.63109 11.3703 4.37344 11.3703Z" fill="#037FC9"/>
<path d="M8.29726 8.6821C7.55493 8.6821 6.95312 9.2839 6.95312 10.0262C6.95312 10.7686 7.55493 11.3704 8.29726 11.3704C9.0396 11.3704 9.6414 10.7686 9.6414 10.0262C9.6414 9.2839 9.0396 8.6821 8.29726 8.6821Z" fill="#037FC9"/>
<path d="M10.5885 7.31051H3.5798L3.44264 6.515H9.20324C9.37271 6.51551 9.52516 6.41206 9.58728 6.25441L10.9589 2.79805C11.0422 2.58663 10.9383 2.34768 10.7269 2.26437C10.6785 2.24527 10.6269 2.23554 10.5748 2.2357H2.72943L2.40025 0.342934C2.36644 0.142797 2.19173 -0.00279876 1.98878 4.08237e-05H0.411471C0.184225 4.08237e-05 0 0.184265 0 0.411512C0 0.638759 0.184225 0.822984 0.411471 0.822984H1.64589L2.82544 7.79056C2.85924 7.9907 3.03396 8.1363 3.23691 8.13346H10.5885C10.8158 8.13346 11 7.94923 11 7.72199C11 7.49474 10.8158 7.31051 10.5885 7.31051Z" fill="#037FC9"/>
</svg>
