<svg width="144" height="36" viewBox="0 0 144 36" fill="none" xmlns="http://www.w3.org/2000/svg">
<path d="M118.355 17.9949H117.553C117.882 17.9949 118.293 17.7275 118.293 17.3779C118.293 17.0488 117.882 16.7609 117.553 16.7609H118.355C118.684 16.7609 118.951 17.0283 118.951 17.3779C118.951 17.7275 118.684 17.9949 118.355 17.9949Z" fill="url(#paint0_linear)"/>
<path d="M118.437 17.9949H117.635C117.676 17.9949 117.717 17.9743 117.758 17.9537H118.56C118.519 17.9743 118.478 17.9949 118.437 17.9949Z" fill="url(#paint1_linear)"/>
<path d="M118.56 17.9749H117.758C117.985 17.8926 118.293 17.6664 118.293 17.399C118.293 17.07 117.882 16.7821 117.553 16.7821H118.355C118.684 16.7821 118.951 17.0494 118.951 17.399C118.951 17.6458 118.787 17.872 118.56 17.9749Z" fill="url(#paint2_linear)"/>
<path d="M117.902 16.4113C117.943 16.3907 117.964 16.3907 118.005 16.3702C118.026 16.3702 118.026 16.3702 118.046 16.3496C118.087 16.329 118.149 16.329 118.19 16.3085C118.252 16.3085 118.313 16.2879 118.375 16.2879H117.573C117.511 16.2879 117.45 16.2879 117.388 16.3085C117.326 16.3085 117.285 16.329 117.244 16.3496C117.223 16.3496 117.223 16.3496 117.203 16.3702C117.182 16.3702 117.182 16.3702 117.162 16.3907C117.141 16.3907 117.121 16.4113 117.1 16.4319C117.08 16.4319 117.08 16.4524 117.059 16.4524C117.018 16.473 116.977 16.4936 116.936 16.5347C117.182 16.5347 117.491 16.5347 117.738 16.5347C117.779 16.4936 117.82 16.473 117.861 16.4524C117.861 16.4319 117.882 16.4319 117.902 16.4113Z" fill="url(#paint3_linear)"/>
<path d="M118.005 16.8843C117.882 16.8021 117.738 16.7198 117.573 16.6375C117.368 16.5347 117.141 16.4319 116.874 16.3496C116.586 16.2468 116.278 16.1645 116.01 16.1234C115.887 16.1028 115.763 16.0823 115.64 16.0617C115.558 16.0617 115.476 16.0411 115.414 16.0411H114.612C114.674 16.0411 114.756 16.0411 114.838 16.0617C114.941 16.0617 115.064 16.0823 115.208 16.1234C115.476 16.1645 115.763 16.2468 116.072 16.3496C116.339 16.4319 116.566 16.5347 116.771 16.6375C116.936 16.7198 117.08 16.8021 117.203 16.8843C117.532 17.09 117.697 17.2956 117.656 17.3779C117.656 17.3779 117.656 17.3985 117.635 17.3985C117.635 17.3985 117.635 17.3985 117.614 17.419C117.614 17.419 117.614 17.419 117.594 17.419C117.594 17.419 117.573 17.419 117.573 17.4396H117.553C117.553 17.4396 117.532 17.4396 117.532 17.4602H117.512H117.491C117.47 17.4602 117.47 17.4602 117.45 17.4602C117.429 17.4602 117.429 17.4602 117.409 17.4602C117.388 17.4602 117.368 17.4602 117.347 17.4602C117.326 17.4602 117.326 17.4602 117.306 17.4602C117.265 17.4602 117.244 17.4602 117.203 17.4602H118.005C118.046 17.4602 118.087 17.4602 118.108 17.4602C118.129 17.4602 118.129 17.4602 118.149 17.4602C118.17 17.4602 118.19 17.4602 118.211 17.4602H118.231C118.252 17.4602 118.252 17.4602 118.272 17.4602C118.293 17.4602 118.293 17.4602 118.293 17.4602H118.314H118.334H118.355C118.355 17.4602 118.375 17.4602 118.375 17.4396C118.375 17.4396 118.375 17.4396 118.396 17.4396C118.396 17.4396 118.416 17.4396 118.416 17.419C118.416 17.419 118.416 17.3985 118.437 17.3985C118.499 17.2956 118.334 17.1105 118.005 16.8843Z" fill="url(#paint4_linear)"/>
<path d="M114.571 16.2262C114.571 16.1645 114.571 16.1234 114.55 16.0617H115.455C115.476 16.1234 115.476 16.1645 115.476 16.2262C115.188 16.2262 114.838 16.2262 114.571 16.2262Z" fill="url(#paint5_linear)"/>
<path d="M115.907 15.9177H115.003C114.797 15.8766 114.612 15.856 114.427 15.8355H115.332C115.517 15.856 115.702 15.8766 115.907 15.9177Z" fill="url(#paint6_linear)"/>
<path d="M115.907 15.9177H115.003C114.797 15.8766 114.612 15.856 114.427 15.8355H115.332C115.517 15.856 115.702 15.8766 115.907 15.9177Z" fill="url(#paint7_linear)"/>
<path d="M115.558 16.9666H114.653C114.509 16.9049 114.406 16.8226 114.283 16.7609H115.188C115.311 16.8226 115.434 16.8843 115.558 16.9666Z" fill="url(#paint8_linear)"/>
<path d="M115.558 16.9666H114.653C114.509 16.9049 114.406 16.8226 114.283 16.7609H115.188C115.311 16.8226 115.434 16.8843 115.558 16.9666Z" fill="url(#paint9_linear)"/>
<path d="M115.208 16.7403H114.303C114.468 16.6169 114.55 16.4318 114.55 16.2056H115.455C115.455 16.4318 115.352 16.6169 115.208 16.7403Z" fill="url(#paint10_linear)"/>
<path d="M114.468 15.8772C114.345 15.6921 114.118 15.5482 113.892 15.5482H114.797C115.023 15.5482 115.291 15.6921 115.373 15.8978C115.085 15.8772 114.735 15.8772 114.468 15.8772Z" fill="url(#paint11_linear)"/>
<path d="M115.352 15.8355H114.447C114.324 15.6504 114.118 15.527 113.892 15.527H114.797C115.023 15.5475 115.229 15.6709 115.352 15.8355Z" fill="url(#paint12_linear)"/>
<path d="M113.893 16.9049C113.975 16.9049 114.037 16.8843 114.098 16.8638C114.366 16.8638 114.633 16.8638 114.88 16.8638H114.983C114.921 16.8843 114.839 16.9049 114.777 16.9049C114.51 16.9049 114.16 16.9049 113.893 16.9049Z" fill="url(#paint13_linear)"/>
<path d="M114.776 16.9059H113.872C113.913 16.9059 113.933 16.9059 113.974 16.9059H114.879C114.859 16.8853 114.818 16.9059 114.776 16.9059Z" fill="url(#paint14_linear)"/>
<path d="M114.879 16.8843H113.974C114.015 16.8843 114.056 16.8637 114.098 16.8637H115.002C114.961 16.8637 114.92 16.8843 114.879 16.8843Z" fill="url(#paint15_linear)"/>
<path d="M108.977 25.7892H108.072L111.136 15.2802H112.041L108.977 25.7892Z" fill="url(#paint16_linear)"/>
<path d="M106.756 30.2931L101.512 15.2802H100.607L105.851 30.2931C106.119 31.1157 106.036 31.6915 105.584 32.0617C105.502 32.1234 105.419 32.1851 105.316 32.2468C105.296 32.2674 105.275 32.2674 105.255 32.2879C105.172 32.3291 105.07 32.3908 104.967 32.4319C104.946 32.4319 104.926 32.4524 104.905 32.4524C104.843 32.473 104.782 32.4936 104.72 32.5141C104.699 32.5141 104.658 32.5347 104.638 32.5347C104.576 32.5553 104.494 32.5553 104.432 32.5758C104.412 32.5758 104.37 32.5964 104.35 32.5964C104.288 32.5964 104.226 32.617 104.165 32.617C104.124 32.617 104.103 32.617 104.062 32.617C103.959 32.617 103.877 32.617 103.774 32.617H104.679C104.782 32.617 104.885 32.617 104.967 32.617C105.008 32.617 105.029 32.617 105.07 32.617C105.131 32.617 105.193 32.5964 105.255 32.5964H105.275C105.296 32.5964 105.316 32.5964 105.337 32.5758C105.399 32.5553 105.481 32.5553 105.543 32.5347C105.584 32.5347 105.604 32.5141 105.625 32.5141C105.687 32.4936 105.748 32.473 105.81 32.4524C105.831 32.4524 105.851 32.4319 105.872 32.4319H105.892C105.995 32.3908 106.098 32.3496 106.18 32.2879C106.201 32.2674 106.221 32.2674 106.242 32.2468C106.324 32.1851 106.427 32.1234 106.509 32.0617C106.941 31.6915 107.023 31.0951 106.756 30.2931Z" fill="url(#paint17_linear)"/>
<path d="M103.568 32.617H102.664V35.8252H103.568V32.617Z" fill="url(#paint18_linear)"/>
<path d="M18.9615 15.2803H18.0566C18.0566 12.7918 19.0644 11.1671 21.0592 10.4062H21.9641C19.9692 11.1466 18.9615 12.7713 18.9615 15.2803Z" fill="#346D01"/>
<path d="M21.9845 10.4062H21.0796C21.532 10.2417 22.0462 10.0977 22.6014 10.0155H23.5063C22.9305 10.0977 22.4369 10.2211 21.9845 10.4062Z" fill="#346D01"/>
<path d="M23.4859 10.0154H22.5811C23.0952 9.93316 23.6505 9.89203 24.2674 9.89203H25.1723C24.5759 9.89203 24.0001 9.93316 23.4859 10.0154Z" fill="#346D01"/>
<path d="M52.8331 26.838H51.9282C52.4218 26.5501 52.7303 26.1388 52.8537 25.6247H53.7586C53.6352 26.1388 53.3267 26.5501 52.8331 26.838Z" fill="#346D01"/>
<path d="M52.8331 26.838H51.9282C52.4218 26.5501 52.7303 26.1388 52.8537 25.6247H53.7586C53.6352 26.1388 53.3267 26.5501 52.8331 26.838Z" fill="#346D01"/>
<path d="M51.1671 27.2699H50.2622C50.8997 27.2699 51.455 27.1259 51.9486 26.838H52.8535C52.3599 27.1259 51.7841 27.2699 51.1671 27.2699Z" fill="#377E00"/>
<path d="M51.1671 27.2699H50.2622C50.4473 27.2699 50.6324 27.2493 50.8175 27.2288H51.7224C51.5373 27.2493 51.3522 27.2699 51.1671 27.2699Z" fill="#377E00"/>
<path d="M51.7223 27.2288H50.8174C51.0436 27.1877 51.2698 27.1465 51.4755 27.0643H52.3804C52.1541 27.1465 51.9485 27.1877 51.7223 27.2288Z" fill="#377E00"/>
<path d="M52.3805 27.0642H51.4756C51.6401 27.0025 51.7841 26.9203 51.9486 26.838H52.8535C52.689 26.9203 52.545 27.0025 52.3805 27.0642Z" fill="#377E00"/>
<path d="M53.9847 21.1825H53.0798C53.0592 20.6478 52.9564 20.1748 52.7919 19.7635C52.6273 19.3522 52.4011 19.0231 52.1132 18.7558C51.8458 18.4884 51.5168 18.2828 51.1672 18.1594C50.8176 18.036 50.4474 17.9743 50.0566 17.9743H50.9615C51.3317 17.9743 51.7019 18.036 52.0721 18.1594C52.4217 18.2828 52.7507 18.4884 53.0181 18.7558C53.306 19.0231 53.5117 19.3728 53.6967 19.7635C53.8613 20.1748 53.9641 20.6478 53.9847 21.1825Z" fill="#346D01"/>
<path d="M51.3317 30.3342H50.4268C45.5528 30.3342 43.1055 27.6607 43.1055 22.3342C43.1055 21.2031 43.27 20.1748 43.5785 19.2699C43.887 18.3651 44.36 17.563 44.9564 16.9049C45.5528 16.2468 46.2931 15.7532 47.1774 15.4036C47.2186 15.3831 47.2597 15.3831 47.2803 15.3625H48.1852C48.144 15.3831 48.1029 15.3831 48.0823 15.4036C47.2186 15.7532 46.4782 16.2468 45.8613 16.9049C45.2649 17.563 44.7918 18.3445 44.4834 19.2699C44.1749 20.1748 44.0104 21.2031 44.0104 22.3342C44.0309 27.6813 46.4577 30.3342 51.3317 30.3342Z" fill="#346D01"/>
<path d="M48.2057 15.3625H47.3008C47.7532 15.198 48.2674 15.054 48.8021 14.9923H49.707C49.1722 15.054 48.6787 15.198 48.2057 15.3625Z" fill="#346D01"/>
<path d="M49.7071 14.9923H48.8022C49.2341 14.9306 49.7071 14.8895 50.2007 14.8895H51.1056C50.612 14.8895 50.139 14.9101 49.7071 14.9923Z" fill="#346D01"/>
<path d="M42.9616 30.3342H42.0567C41.0079 30.3342 40.103 30.1697 39.3421 29.8612C38.5811 29.5527 37.9642 29.1208 37.4912 28.5861C36.9976 28.0514 36.648 27.4139 36.4423 26.7147C36.2161 25.9949 36.1133 25.2339 36.1133 24.4525H37.0182C37.0182 25.2545 37.121 25.9949 37.3472 26.7147C37.5734 27.4345 37.923 28.0514 38.3961 28.5861C38.8896 29.1208 39.5066 29.5527 40.247 29.8612C40.9873 30.1697 41.8922 30.3342 42.9616 30.3342Z" fill="#346D01"/>
<path d="M97.8304 29.9435H96.9255C96.8021 29.5733 96.7198 29.1208 96.6787 28.6273H97.5836C97.6247 29.1414 97.707 29.5733 97.8304 29.9435Z" fill="url(#paint19_linear)"/>
<path d="M97.8304 29.9435H96.9255C96.8021 29.5733 96.7198 29.1208 96.6787 28.6273H97.5836C97.6247 29.1414 97.707 29.5733 97.8304 29.9435Z" fill="url(#paint20_linear)"/>
<path d="M96.6583 22.7661L96.6377 24.3702C96.6377 24.8021 96.5349 25.2134 96.3498 25.6041C96.1647 25.9949 95.918 26.3239 95.6095 26.6118C95.301 26.8998 94.9308 27.126 94.4989 27.2905C94.4372 27.3111 94.3961 27.3316 94.3344 27.3522C94.2727 27.3728 94.1904 27.3933 94.1288 27.4139C94.0876 27.4345 94.0259 27.4345 93.9848 27.455C93.9231 27.4756 93.8408 27.4962 93.7791 27.4962C93.7174 27.5167 93.6352 27.5167 93.5735 27.5167C93.5323 27.5167 93.5118 27.5167 93.4707 27.5373C93.3678 27.5373 93.2444 27.5579 93.1416 27.5579H94.0465C94.1699 27.5579 94.2727 27.5579 94.3755 27.5373C94.4167 27.5373 94.4372 27.5373 94.4784 27.5167C94.5195 27.5167 94.5812 27.5167 94.6223 27.4962C94.6429 27.4962 94.6635 27.4962 94.684 27.4756C94.7457 27.455 94.828 27.455 94.8897 27.4345C94.9308 27.4139 94.9925 27.4139 95.0336 27.3933C95.0953 27.3728 95.1776 27.3522 95.2393 27.3316C95.2804 27.3111 95.3216 27.3111 95.3421 27.2905C95.3627 27.2905 95.3832 27.2699 95.4038 27.2699C95.8357 27.1054 96.2059 26.8792 96.5144 26.5913C96.8228 26.3034 97.0696 25.9537 97.2547 25.5836C97.4398 25.1928 97.5426 24.7815 97.5426 24.3496L97.5632 22.7455H96.6583V22.7661Z" fill="url(#paint21_linear)"/>
<path d="M90.9203 15.8149C90.9409 15.7943 90.9615 15.7943 90.982 15.7738C91.0849 15.7121 91.2083 15.6504 91.3317 15.5887C91.3317 15.5887 91.3522 15.5887 91.3522 15.5681C91.4756 15.5064 91.6196 15.4447 91.743 15.4036C91.7635 15.383 91.8047 15.383 91.8252 15.3625C91.9486 15.3213 92.072 15.2802 92.1954 15.2391C92.2982 15.2185 92.3805 15.1774 92.4833 15.1568C92.5245 15.1568 92.545 15.1362 92.5862 15.1362C92.6478 15.1157 92.7301 15.0951 92.7918 15.0951C92.8329 15.0951 92.8741 15.0746 92.9152 15.0746C92.9769 15.054 93.0592 15.054 93.1209 15.0334C93.162 15.0334 93.2031 15.0129 93.2442 15.0129C93.3059 15.0129 93.3676 14.9923 93.4088 14.9923C93.491 14.9717 93.5733 14.9717 93.6556 14.9512C93.7173 14.9512 93.7584 14.9306 93.8201 14.9306C93.9023 14.9306 93.9846 14.91 94.0874 14.91C94.1491 14.91 94.1903 14.91 94.252 14.8895C94.3548 14.8895 94.4576 14.8689 94.5604 14.8689C94.6016 14.8689 94.6633 14.8689 94.7044 14.8689C94.8484 14.8689 95.0129 14.8689 95.1774 14.8689H94.2725C94.108 14.8689 93.964 14.8689 93.7995 14.8689C93.7584 14.8689 93.6967 14.8689 93.6556 14.8689C93.5527 14.8689 93.4499 14.8689 93.3471 14.8895C93.2854 14.8895 93.2442 14.8895 93.1826 14.91C93.1003 14.91 92.9975 14.9306 92.9152 14.9306C92.8535 14.9306 92.8124 14.9512 92.7507 14.9512C92.6684 14.9512 92.5861 14.9717 92.5039 14.9717C92.4628 14.9717 92.4422 14.9717 92.4011 14.9923C92.3805 14.9923 92.3394 14.9923 92.3188 15.0129C92.2777 15.0129 92.2365 15.0334 92.1954 15.0334C92.1337 15.054 92.0514 15.054 91.9897 15.0746C91.9486 15.0746 91.9075 15.0951 91.8664 15.0951C91.7841 15.1157 91.7224 15.1362 91.6607 15.1362C91.6196 15.1362 91.599 15.1568 91.5579 15.1568C91.455 15.1774 91.3522 15.2185 91.27 15.2391C91.1466 15.2802 91.0232 15.3213 90.8998 15.3625C90.8792 15.3625 90.8792 15.3625 90.8586 15.383C90.8381 15.383 90.8381 15.4036 90.8175 15.4036C90.6736 15.4653 90.5502 15.5064 90.4268 15.5681C90.4268 15.5681 90.4062 15.5681 90.4062 15.5887C90.2828 15.6504 90.1594 15.7121 90.0566 15.7738C90.036 15.7943 90.0155 15.7943 89.9949 15.8149C89.8921 15.8766 89.7687 15.9589 89.6658 16.0206C89.6453 16.0411 89.6247 16.0411 89.6041 16.0617C89.5013 16.144 89.3985 16.2262 89.2957 16.3085C88.7815 16.7609 88.4319 17.3162 88.1851 17.9537C87.9589 18.5913 87.8355 19.2905 87.8149 20.0514H88.7198C88.7404 19.2905 88.8638 18.5913 89.09 17.9537C89.3162 17.3162 89.6864 16.7609 90.2005 16.3085C90.3034 16.2262 90.3856 16.144 90.4885 16.0617C90.509 16.0411 90.5296 16.0411 90.5502 16.0206C90.6941 15.9589 90.7969 15.8766 90.9203 15.8149Z" fill="url(#paint22_linear)"/>
<path d="M96.8018 18.2622C96.3494 17.9949 95.753 17.8509 95.0126 17.8509H94.1078C94.8687 17.8509 95.4651 17.9949 95.8969 18.2622C96.3494 18.5296 96.5756 18.8998 96.5756 19.3728C96.5756 19.8869 96.4111 20.2571 96.0615 20.4833C96.0203 20.5244 95.9586 20.545 95.8969 20.5861C95.8764 20.5861 95.8558 20.6067 95.8353 20.6067C95.7941 20.6273 95.753 20.6478 95.6913 20.6684C95.6502 20.689 95.609 20.7095 95.5679 20.7095C95.5473 20.7095 95.5473 20.7095 95.5268 20.7301C95.4651 20.7507 95.4034 20.7712 95.3211 20.7918C95.3006 20.7918 95.28 20.7918 95.28 20.8124C95.2183 20.8329 95.1566 20.8535 95.0743 20.8535C95.0538 20.8535 95.0538 20.8535 95.0332 20.8741C94.9509 20.8946 94.8687 20.9152 94.7864 20.9358C94.7658 20.9358 94.7453 20.9358 94.7247 20.9563C94.6425 20.9769 94.5602 20.9769 94.4779 20.9975C94.4574 20.9975 94.4368 20.9975 94.4368 20.9975C94.334 21.018 94.2106 21.0386 94.1078 21.0591C94.0049 21.0797 93.9227 21.0797 93.8404 21.1003C93.7581 21.1208 93.6759 21.1208 93.5936 21.1414C93.4908 21.162 93.4085 21.162 93.3057 21.1825C93.1823 21.2031 93.0383 21.2237 92.9149 21.2442C92.8327 21.2648 92.7299 21.2648 92.6476 21.2854C92.5036 21.3059 92.3802 21.3265 92.2363 21.3676C92.154 21.3882 92.0923 21.3882 92.0101 21.4088C91.8044 21.4499 91.5988 21.491 91.4137 21.5322C91.208 21.5733 91.0024 21.6144 90.8173 21.6761C90.7556 21.6967 90.6939 21.7172 90.6322 21.7378C90.5088 21.7789 90.3854 21.8201 90.262 21.8612C90.262 21.8612 90.262 21.8612 90.2414 21.8612C90.1386 21.9023 90.0152 21.9435 89.9124 22.0052C89.8507 22.0257 89.8095 22.0463 89.7479 22.0669C89.5833 22.1491 89.4394 22.2314 89.2954 22.3136C88.699 22.6633 88.226 23.1568 87.897 23.7944C87.5679 24.4319 87.3828 25.2545 87.3828 26.3239C87.3828 27.5167 87.7736 28.4833 88.5551 29.2237C89.3365 29.964 90.5705 30.3342 92.2569 30.3342H93.1617C91.4754 30.3342 90.2414 29.964 89.4599 29.2237C88.6784 28.4833 88.2877 27.5167 88.2877 26.3239C88.2877 25.2751 88.4522 24.4319 88.8018 23.7944C89.1309 23.1774 89.6039 22.6838 90.2003 22.3136C90.3443 22.2314 90.5088 22.1491 90.6527 22.0669C90.7144 22.0463 90.7761 22.0257 90.8173 21.9846C90.9201 21.9435 91.0435 21.8818 91.1463 21.8406C91.2697 21.7995 91.3931 21.7584 91.5165 21.7172C91.5782 21.6967 91.6399 21.6761 91.7016 21.6555C91.8867 21.5939 92.0923 21.5527 92.298 21.5116C92.5036 21.4705 92.6887 21.4293 92.8944 21.3882C92.9561 21.3676 93.0383 21.3676 93.1206 21.3471C93.2646 21.3265 93.388 21.3059 93.5319 21.2648C93.6142 21.2442 93.717 21.2442 93.7993 21.2237C93.9227 21.2031 94.0666 21.1825 94.19 21.162C94.2928 21.1414 94.3751 21.1414 94.4779 21.1208C94.6425 21.1003 94.8275 21.0591 94.9921 21.0386C95.0126 21.0386 95.0538 21.0386 95.0743 21.018C95.1566 20.9974 95.2389 20.9975 95.3211 20.9769C95.3417 20.9769 95.3622 20.9769 95.3828 20.9769C95.4651 20.9563 95.5473 20.9563 95.6296 20.9358C95.6502 20.9358 95.6707 20.9358 95.6913 20.9152C95.7736 20.8946 95.8558 20.8741 95.9381 20.8535C95.9586 20.8535 95.9792 20.8535 95.9792 20.8329C96.0409 20.8124 96.1026 20.7918 96.1643 20.7918C96.1849 20.7918 96.2054 20.7918 96.2054 20.7712C96.2671 20.7507 96.3494 20.7301 96.4111 20.7095C96.4317 20.7095 96.4317 20.7095 96.4522 20.689C96.4728 20.689 96.5139 20.6684 96.5345 20.6684C96.555 20.6684 96.5551 20.6684 96.5756 20.6478C96.6167 20.6273 96.6784 20.6067 96.7196 20.5861C96.7401 20.5861 96.7607 20.5656 96.7813 20.5656C96.843 20.545 96.9047 20.5039 96.9458 20.4627C97.2748 20.2365 97.4599 19.8663 97.4599 19.3522C97.4805 18.9203 97.2543 18.5502 96.8018 18.2622Z" fill="url(#paint23_linear)"/>
<path d="M82.5294 24.6992H81.6245L83.8456 15.2802H84.7505L82.5294 24.6992Z" fill="url(#paint24_linear)"/>
<path d="M80.5965 29.9435H79.6916L77.3677 21.4293H78.2726L80.5965 29.9435Z" fill="url(#paint25_linear)"/>
<path d="M74.2828 24.6992H73.3984L75.4139 15.2802H76.2982L74.2828 24.6992Z" fill="url(#paint26_linear)"/>
<path d="M72 29.9435H71.0952L66.9409 15.2802H67.8458L72 29.9435Z" fill="url(#paint27_linear)"/>
<path d="M67.4959 19.0849H66.591C66.2825 19.0437 65.9535 19.0026 65.645 19.0026H66.5499C66.879 19.0232 67.1874 19.0437 67.4959 19.0849Z" fill="#121011"/>
<path d="M62.7867 17.3162H61.8818C62.1903 16.8226 62.5399 16.4524 62.869 16.1851C63.2186 15.9177 63.5682 15.7121 63.9384 15.5475C63.959 15.5475 63.9795 15.527 64.0001 15.527H64.905C64.8844 15.527 64.8638 15.5475 64.8433 15.5475C64.4731 15.6915 64.1235 15.8972 63.7739 16.1851C63.4243 16.4524 63.0952 16.8432 62.7867 17.3162Z" fill="#346D01"/>
<path d="M64.9254 15.527H64.0205C64.3084 15.4241 64.5963 15.3419 64.8843 15.3008H65.7891C65.5012 15.3419 65.1927 15.4241 64.9254 15.527Z" fill="#346D01"/>
<path d="M65.7892 15.3008H64.8843C64.946 15.3008 65.0077 15.2802 65.0694 15.2802C65.2133 15.2596 65.3573 15.2596 65.5012 15.2391H66.4061C66.2622 15.2391 66.1182 15.2596 65.9742 15.2802C65.9126 15.2802 65.8509 15.3008 65.7892 15.3008Z" fill="#346D01"/>
<path d="M26.1388 9.89203H25.2339V13.5116H26.1388V9.89203Z" fill="#346D01"/>
<path d="M25.2339 15.2803V29.9435H26.1182V15.2803H25.275H25.2339Z" fill="#346D01"/>
<path d="M18.961 18.0154H18.0562V29.9435H18.961V18.0154Z" fill="#346D01"/>
<path d="M24.2879 9.89203C20.1543 9.89203 18.0771 11.6812 18.0771 15.2596H18.982C18.982 11.6812 21.0592 9.89203 25.1928 9.89203H24.2879Z" fill="#346D01"/>
<path d="M16.8019 15.2803H15.897V18.0361H16.8019V15.2803Z" fill="#346D01"/>
<path d="M31.6295 9.89203H30.7246V29.9434H31.6295V9.89203Z" fill="#346D01"/>
<path d="M53.0381 18.7558C52.7707 18.4885 52.4417 18.2828 52.0921 18.1594C51.7425 18.036 51.3723 17.9743 50.9815 17.9743H50.0767C50.4468 17.9743 50.817 18.036 51.1872 18.1594C51.5368 18.2828 51.8659 18.4885 52.1332 18.7558C52.4211 19.0232 52.6268 19.3728 52.8119 19.7635C52.9764 20.1748 53.0792 20.6479 53.0998 21.1826H54.0047C53.9841 20.6479 53.8813 20.1748 53.7168 19.7635C53.5317 19.3522 53.3055 19.0232 53.0381 18.7558Z" fill="#346D01"/>
<path d="M44.0309 22.3343C44.0309 21.2031 44.1954 20.1749 44.5039 19.27C44.8124 18.3651 45.2854 17.563 45.8818 16.9049C46.4782 16.2469 47.2185 15.7533 48.1028 15.4037C48.9666 15.0541 49.9743 14.8895 51.1054 14.8895H50.2005C49.0694 14.8895 48.0617 15.0541 47.198 15.4037C46.3342 15.7533 45.5938 16.2469 44.9769 16.9049C44.3805 17.563 43.9075 18.3445 43.599 19.27C43.2905 20.1749 43.126 21.2031 43.126 22.3343C43.126 27.6607 45.5733 30.3343 50.4473 30.3343H51.3522C46.4576 30.3343 44.0309 27.6813 44.0309 22.3343Z" fill="#346D01"/>
<path d="M38.3956 28.5862C37.902 28.0515 37.5524 27.4139 37.3467 26.7147C37.1205 25.9949 37.0177 25.234 37.0177 24.4525V11.3111H36.1128V24.4319C36.1128 25.234 36.2156 25.9743 36.4418 26.6941C36.6681 27.4139 37.0177 28.0309 37.4907 28.5656C37.9843 29.1003 38.6012 29.5322 39.3416 29.8407C40.0819 30.1491 40.9868 30.3137 42.0562 30.3137H42.9611C41.9123 30.3137 41.0074 30.1491 40.2465 29.8407C39.4855 29.5527 38.8686 29.1209 38.3956 28.5862Z" fill="#346D01"/>
<path d="M65.5013 15.2596C65.3574 15.2596 65.2134 15.2802 65.0694 15.3008C64.6993 15.3419 64.3291 15.4242 63.9589 15.5681C63.5887 15.7121 63.2391 15.9177 62.8895 16.2057C62.5399 16.473 62.2108 16.8638 61.9023 17.3368H62.8072C63.1157 16.8432 63.4653 16.473 63.7944 16.2057C64.144 15.9383 64.4936 15.7327 64.8638 15.5681C65.234 15.4242 65.6041 15.3213 65.9743 15.3008C66.1183 15.2802 66.2622 15.2802 66.4062 15.2596H65.5013Z" fill="#346D01"/>
<path d="M59.1666 15.6093H58.2617V29.9641H59.1666V15.6093Z" fill="#346D01"/>
<path d="M129.276 26.5501H128.474C128.597 26.5501 128.679 26.4473 128.679 26.3445C128.679 26.2211 128.597 26.1388 128.474 26.1388H129.276C129.399 26.1388 129.481 26.2211 129.481 26.3445C129.481 26.4679 129.379 26.5501 129.276 26.5501Z" fill="url(#paint28_linear)"/>
<path d="M129.296 26.5501H128.494C128.514 26.5501 128.514 26.5501 128.535 26.5296H129.337C129.337 26.5501 129.316 26.5501 129.296 26.5501Z" fill="url(#paint29_linear)"/>
<path d="M129.337 26.5501H128.535C128.618 26.5296 128.679 26.4473 128.679 26.3445C128.679 26.2211 128.597 26.1388 128.474 26.1388H129.276C129.399 26.1388 129.481 26.2211 129.481 26.3445C129.481 26.4267 129.42 26.509 129.337 26.5501Z" fill="url(#paint30_linear)"/>
<path d="M128.74 27.7642H127.938C128.144 27.7642 128.308 27.5996 128.308 27.394C128.308 27.1883 128.144 27.0238 127.938 27.0238H128.74C128.946 27.0238 129.11 27.1883 129.11 27.394C129.11 27.5996 128.946 27.7642 128.74 27.7642Z" fill="url(#paint31_linear)"/>
<path d="M128.74 27.7635H127.938C127.959 27.7635 127.979 27.7635 128 27.7635H128.802C128.761 27.7429 128.761 27.7635 128.74 27.7635Z" fill="url(#paint32_linear)"/>
<path d="M128.781 27.7429H127.979C128 27.7429 128.041 27.7224 128.061 27.7224H128.863C128.843 27.7429 128.822 27.7429 128.781 27.7429Z" fill="url(#paint33_linear)"/>
<path d="M128.863 27.7224H128.061C128.205 27.6607 128.308 27.5373 128.308 27.3728C128.308 27.1671 128.144 27.0026 127.938 27.0026H128.74C128.946 27.0026 129.11 27.1671 129.11 27.3728C129.11 27.5373 129.007 27.6813 128.863 27.7224Z" fill="url(#paint34_linear)"/>
<path d="M128.062 26.3445H127.26C127.466 26.3445 127.63 26.18 127.63 25.9743C127.63 25.7687 127.466 25.6041 127.26 25.6041H128.062C128.268 25.6041 128.432 25.7687 128.432 25.9743C128.432 26.18 128.268 26.3445 128.062 26.3445Z" fill="url(#paint35_linear)"/>
<path d="M128.123 26.3445H127.321C127.342 26.3445 127.383 26.3239 127.404 26.3239H128.206C128.185 26.3239 128.144 26.3445 128.123 26.3445Z" fill="url(#paint36_linear)"/>
<path d="M128.207 26.3239H127.405C127.549 26.2622 127.651 26.1388 127.651 25.9743C127.651 25.7687 127.487 25.6041 127.281 25.6041H128.083C128.289 25.6041 128.453 25.7687 128.453 25.9743C128.433 26.1388 128.351 26.2622 128.207 26.3239Z" fill="url(#paint37_linear)"/>
<path d="M128.123 29.5321H127.321C127.136 29.5321 126.992 29.491 126.992 29.491H127.794C127.794 29.5116 127.938 29.5321 128.123 29.5321Z" fill="url(#paint38_linear)"/>
<path d="M128.123 29.5321H127.321C127.136 29.5321 126.992 29.491 126.992 29.491H127.794C127.794 29.5116 127.938 29.5321 128.123 29.5321Z" fill="url(#paint39_linear)"/>
<path d="M126.005 26.0771H125.203C125.388 25.892 125.532 25.8303 125.676 25.8303H126.478C126.334 25.8303 126.19 25.892 126.005 26.0771Z" fill="url(#paint40_linear)"/>
<path d="M126.005 26.0777H125.203C125.327 25.9749 125.429 25.8926 125.512 25.8515H126.314C126.211 25.8926 126.108 25.9749 126.005 26.0777Z" fill="url(#paint41_linear)"/>
<path d="M126.314 25.8509H125.512C125.553 25.8303 125.573 25.8303 125.615 25.8303H126.417C126.375 25.8303 126.355 25.8509 126.314 25.8509Z" fill="url(#paint42_linear)"/>
<path d="M127.075 28.9358C127.116 28.9152 127.136 28.9152 127.177 28.8946C127.198 28.8946 127.198 28.8741 127.219 28.8741C127.239 28.8535 127.26 28.8535 127.28 28.8329C127.301 28.8329 127.301 28.8124 127.321 28.8124C127.342 28.7918 127.383 28.7918 127.404 28.7712C127.465 28.7507 127.507 28.7095 127.568 28.689C127.589 28.689 127.589 28.6684 127.609 28.6684C127.65 28.6478 127.692 28.6273 127.733 28.6273C127.753 28.6273 127.774 28.6067 127.794 28.6067C127.836 28.5861 127.877 28.5861 127.918 28.5861C127.938 28.5861 127.959 28.5861 127.98 28.5656C128.041 28.5656 128.082 28.545 128.144 28.545H127.342C127.301 28.545 127.239 28.545 127.198 28.5656C127.198 28.5656 127.198 28.5656 127.177 28.5656C127.157 28.5656 127.136 28.5656 127.116 28.5861C127.075 28.5861 127.034 28.6067 126.992 28.6067C126.972 28.6067 126.951 28.6273 126.931 28.6273C126.91 28.6273 126.89 28.6478 126.869 28.6478C126.848 28.6478 126.828 28.6684 126.807 28.6684C126.787 28.6684 126.787 28.689 126.766 28.689C126.704 28.7095 126.663 28.7301 126.602 28.7712C126.581 28.7918 126.54 28.7918 126.519 28.8124C126.519 28.8124 126.499 28.8124 126.499 28.8329C126.478 28.8535 126.458 28.8535 126.417 28.8741C126.396 28.8741 126.396 28.8946 126.375 28.8946C126.334 28.9152 126.314 28.9152 126.273 28.9358H126.252C126.211 28.9563 126.149 28.9769 126.108 28.9975H126.087C126.026 29.018 125.944 29.0592 125.861 29.0797C125.779 29.1003 125.697 29.1208 125.614 29.162C125.594 29.162 125.594 29.162 125.573 29.162C125.491 29.1825 125.409 29.2031 125.327 29.2237C125.306 29.2237 125.285 29.2237 125.285 29.2442C125.203 29.2648 125.1 29.2854 125.018 29.2854C124.998 29.2854 124.977 29.2854 124.956 29.2854C124.854 29.3059 124.771 29.3059 124.668 29.3265C124.648 29.3265 124.648 29.3265 124.627 29.3265C124.525 29.3265 124.422 29.3471 124.319 29.3471H125.121C125.224 29.3471 125.327 29.3471 125.429 29.3265C125.45 29.3265 125.45 29.3265 125.471 29.3265C125.573 29.3265 125.656 29.3059 125.758 29.2854H125.779H125.8C125.882 29.2648 125.985 29.2648 126.067 29.2442C126.087 29.2442 126.108 29.2442 126.108 29.2442C126.19 29.2237 126.273 29.2031 126.355 29.1825C126.375 29.1825 126.375 29.1825 126.396 29.1825C126.56 29.1414 126.725 29.0797 126.869 29.0386C126.91 29.018 126.972 28.9975 127.013 28.9769C127.054 28.9358 127.075 28.9358 127.075 28.9358Z" fill="url(#paint43_linear)"/>
<path d="M123.352 27.928H122.55C122.18 27.928 121.954 27.9075 121.954 27.9075H122.756C122.756 27.9075 122.982 27.928 123.352 27.928Z" fill="url(#paint44_linear)"/>
<path d="M123.352 27.928H122.55C122.18 27.928 121.954 27.9075 121.954 27.9075H122.756C122.756 27.9075 122.982 27.928 123.352 27.928Z" fill="url(#paint45_linear)"/>
<path d="M125.573 23.3213C125.388 23.0128 125.141 22.766 124.874 22.5604C124.668 22.4164 124.545 22.2313 124.319 22.1491L120.185 19.9485H119.383L123.27 22.1079C123.578 22.2725 123.99 22.4987 124.195 22.6426C124.463 22.8483 124.75 23.0745 124.936 23.3624C125.758 24.6786 125.203 26.3444 123.887 27.1671C123.804 27.2082 123.743 27.2493 123.66 27.2904C123.64 27.311 123.619 27.311 123.599 27.3316C123.537 27.3521 123.475 27.3933 123.414 27.4138C123.393 27.4138 123.373 27.4344 123.373 27.4344C123.29 27.455 123.208 27.4961 123.126 27.5167C123.105 27.5167 123.085 27.5167 123.064 27.5372C122.982 27.5578 122.92 27.5784 122.838 27.5784C122.817 27.5784 122.817 27.5784 122.797 27.5784C122.756 27.5784 122.714 27.5989 122.673 27.5989C122.653 27.5989 122.632 27.5989 122.612 27.5989C122.55 27.5989 122.488 27.5989 122.406 27.5989H123.208C123.27 27.5989 123.331 27.5989 123.414 27.5989C123.434 27.5989 123.455 27.5989 123.475 27.5989C123.516 27.5989 123.558 27.5989 123.599 27.5784C123.599 27.5784 123.599 27.5784 123.619 27.5784H123.64C123.722 27.5578 123.784 27.5578 123.866 27.5372C123.887 27.5372 123.907 27.5372 123.928 27.5167C124.01 27.4961 124.092 27.4755 124.175 27.4344C124.175 27.4344 124.175 27.4344 124.195 27.4344C124.216 27.4344 124.216 27.4344 124.236 27.4138C124.298 27.3933 124.36 27.3521 124.421 27.3316C124.442 27.3316 124.463 27.311 124.483 27.2904C124.565 27.2493 124.627 27.2082 124.709 27.1671C126.005 26.3444 126.396 24.6169 125.573 23.3213Z" fill="url(#paint46_linear)"/>
<path d="M123.99 35.6401H123.208L116.545 25.5836H117.347L123.99 35.6401Z" fill="url(#paint47_linear)"/>
<path d="M116.464 17.419C116.526 17.09 116.629 16.8432 116.793 16.6581H117.595C117.431 16.8432 117.328 17.1106 117.266 17.419C117.02 17.419 116.691 17.419 116.464 17.419Z" fill="url(#paint48_linear)"/>
<path d="M117.244 17.419H116.442C116.504 17.09 116.606 16.8432 116.771 16.6581H117.573C117.408 16.8432 117.306 17.1106 117.244 17.419Z" fill="url(#paint49_linear)"/>
<path d="M117.758 17.5013H116.956C116.792 17.4807 116.627 17.4601 116.442 17.419H117.244C117.429 17.4601 117.614 17.5013 117.758 17.5013Z" fill="url(#paint50_linear)"/>
<path d="M117.758 17.5013H116.956C116.792 17.4807 116.627 17.4601 116.442 17.419H117.244C117.429 17.4601 117.614 17.5013 117.758 17.5013Z" fill="url(#paint51_linear)"/>
<path d="M117.224 17.9948C117.224 17.8509 117.224 17.7275 117.244 17.6041H116.442C116.422 17.7275 116.422 17.8509 116.422 17.9948L116.566 25.5835H117.368L117.224 17.9948Z" fill="url(#paint52_linear)"/>
<path d="M118.026 17.707H117.224C117.162 17.707 117.1 17.707 117.039 17.707C116.854 17.6864 116.648 17.6658 116.442 17.6041C116.216 17.563 115.969 17.4807 115.722 17.3985C115.435 17.2957 115.167 17.1723 114.92 17.0489C114.756 16.9666 114.612 16.8638 114.468 16.7815C114.139 16.5553 113.954 16.3085 114.036 16.1234C114.057 16.0412 114.139 15.9795 114.242 15.9383H115.044C114.941 15.9795 114.859 16.0412 114.838 16.1234C114.776 16.3291 114.962 16.5553 115.27 16.7815C115.393 16.8638 115.558 16.9666 115.722 17.0489C115.969 17.1723 116.237 17.2957 116.524 17.3985C116.771 17.4807 117.018 17.563 117.244 17.6041C117.471 17.6453 117.656 17.6864 117.841 17.707C117.902 17.707 117.964 17.707 118.026 17.707Z" fill="url(#paint53_linear)"/>
<path d="M115.044 15.9383H114.242C114.283 15.9177 114.345 15.8972 114.406 15.8972H115.208C115.147 15.8972 115.085 15.9177 115.044 15.9383Z" fill="url(#paint54_linear)"/>
<path d="M115.208 15.8972H114.406C114.468 15.8972 114.55 15.8766 114.632 15.8766H115.435C115.352 15.8766 115.27 15.8766 115.208 15.8972Z" fill="url(#paint55_linear)"/>
<path d="M118.026 17.707H117.224C117.162 17.707 117.1 17.707 117.039 17.707C116.854 17.6864 116.648 17.6658 116.442 17.6041C116.216 17.563 115.969 17.4807 115.722 17.3985C115.435 17.2956 115.167 17.1722 114.92 17.0489C114.756 16.9666 114.612 16.8638 114.468 16.7815C114.139 16.5553 113.954 16.3085 114.036 16.1234C114.098 15.9589 114.303 15.8766 114.653 15.8766H115.455C115.105 15.8766 114.9 15.9589 114.838 16.1234C114.776 16.3291 114.962 16.5553 115.27 16.7815C115.393 16.8638 115.558 16.9666 115.722 17.0489C115.969 17.1722 116.237 17.2956 116.524 17.3985C116.771 17.4807 117.018 17.563 117.244 17.6041C117.471 17.6453 117.656 17.6864 117.841 17.707C117.902 17.707 117.964 17.707 118.026 17.707Z" fill="url(#paint56_linear)"/>
<path d="M127.938 29.8201H128.473C128.514 29.8201 128.576 29.8201 128.617 29.7995H128.02C128 29.8201 127.959 29.8201 127.938 29.8201Z" fill="url(#paint57_linear)"/>
<path d="M127.835 29.82C127.774 29.82 127.733 29.8406 127.691 29.8406H127.959C127.938 29.8406 127.897 29.8406 127.876 29.82H127.835Z" fill="url(#paint58_linear)"/>
<path d="M129.255 28.874C129.172 28.1748 128.802 27.8663 128.206 27.8663H127.404C127.527 27.8663 127.651 27.8869 127.753 27.9075C127.753 27.9075 128.617 28.0926 128.72 28.8329C128.782 29.4087 128.555 29.6555 128.247 29.7584C128.185 29.7789 128.103 29.7995 128.041 29.7995H128.638C128.658 29.7995 128.699 29.7995 128.72 29.7789H128.741C128.761 29.7789 128.782 29.7584 128.802 29.7584H128.823C128.843 29.7378 128.885 29.7378 128.905 29.7172H128.926C128.946 29.6967 128.987 29.6761 129.008 29.6555L129.028 29.635C129.049 29.6144 129.07 29.5938 129.09 29.5733L129.111 29.5527C129.131 29.5321 129.152 29.491 129.172 29.4704C129.172 29.4704 129.172 29.4499 129.193 29.4499C129.214 29.4293 129.214 29.3882 129.234 29.3676C129.234 29.3676 129.234 29.3471 129.255 29.3471C129.275 29.3059 129.275 29.2648 129.275 29.2237V29.2031C129.275 29.162 129.275 29.1208 129.275 29.0797C129.275 29.0591 129.275 29.0591 129.275 29.0386C129.275 28.9769 129.255 28.9357 129.255 28.874Z" fill="url(#paint59_linear)"/>
<path d="M127.857 29.8203C127.857 29.8203 127.857 29.7991 127.857 29.8203C127.835 29.7991 127.835 29.8203 127.857 29.8203C127.835 29.8203 127.835 29.8203 127.835 29.8203H127.857Z" fill="url(#paint60_linear)"/>
<path d="M127.939 29.7789H127.918C127.939 29.8001 127.939 29.8001 127.939 29.7789Z" fill="url(#paint61_linear)"/>
<path d="M128.411 29.3682V29.347C128.432 29.347 128.411 29.3682 128.411 29.3682Z" fill="url(#paint62_linear)"/>
<path d="M127.856 29.82C127.877 29.82 127.918 29.8406 127.938 29.8406C127.979 29.8406 128 29.8406 128.041 29.82H127.856Z" fill="url(#paint63_linear)"/>
<path d="M127.856 29.82C127.877 29.82 127.918 29.8406 127.938 29.8406C127.979 29.8406 128 29.8406 128.041 29.82H127.856Z" fill="url(#paint64_linear)"/>
<path d="M128.021 29.82C128.082 29.82 128.165 29.7995 128.226 29.7789H128C128 29.7789 128 29.7789 127.979 29.7789C127.959 29.7789 127.938 29.7995 127.918 29.7995H127.897C127.877 29.7995 127.856 29.82 127.815 29.82H128.021Z" fill="url(#paint65_linear)"/>
<path d="M128.021 29.82C128.082 29.82 128.165 29.7995 128.226 29.7789H128C128 29.7789 128 29.7789 127.979 29.7789C127.959 29.7789 127.938 29.7995 127.918 29.7995H127.897C127.877 29.7995 127.856 29.82 127.815 29.82H128.021Z" fill="url(#paint66_linear)"/>
<path d="M126.992 25.4602C126.89 25.419 126.807 25.419 126.746 25.419H125.944C126.026 25.419 126.108 25.4396 126.19 25.4602C126.211 25.4602 126.252 25.4807 126.273 25.5013H126.437C126.437 25.5013 127.465 26.2828 126.54 27.1671C125.8 27.8869 125.573 28.0926 124.483 28.3393H124.648C124.73 28.3393 124.812 28.3393 124.895 28.3393C124.915 28.3393 124.936 28.3393 124.977 28.3393C125.039 28.3393 125.1 28.3188 125.162 28.3188C125.183 28.3188 125.203 28.3188 125.203 28.3188C125.224 28.3188 125.244 28.3188 125.244 28.3188C125.265 28.3188 125.285 28.3188 125.306 28.2982C125.347 28.2982 125.409 28.2776 125.45 28.2776C125.471 28.2776 125.491 28.2776 125.512 28.2571C125.573 28.2365 125.635 28.216 125.697 28.1954H125.717C125.758 28.1748 125.8 28.1748 125.861 28.1543H125.882C125.944 28.1337 125.985 28.1131 126.026 28.0926C126.046 28.072 126.067 28.072 126.088 28.0514C126.17 28.0103 126.231 27.9692 126.314 27.928C127.938 26.9203 127.712 25.707 126.992 25.4602Z" fill="url(#paint67_linear)"/>
<path d="M117.758 17.3985C117.758 17.1928 117.861 17.0077 118.005 16.9049C117.882 16.8226 117.738 16.7404 117.573 16.6581C117.409 16.8432 117.306 17.1106 117.244 17.419C117.429 17.4602 117.594 17.4807 117.758 17.5013C117.758 17.4602 117.758 17.4396 117.758 17.3985Z" fill="url(#paint68_linear)"/>
<path d="M29.9845 9.89203H26.1182V13.5116H29.9845V9.89203Z" fill="url(#paint69_linear)"/>
<path d="M29.9845 15.2803H26.1182V29.9641H29.9845V15.2803Z" fill="url(#paint70_linear)"/>
<path d="M25.1514 9.89203V13.018C24.6579 13.018 24.2465 13.0591 23.9381 13.1208C23.6296 13.1825 23.3828 13.3059 23.2183 13.491C23.0332 13.6761 22.9098 13.9023 22.8481 14.1902C22.7864 14.4781 22.7453 14.8278 22.7453 15.2391H25.2337V17.9949H22.7453V29.9229H18.9406V17.9949H16.7812V15.2802H18.9612C18.9406 11.7018 21.0178 9.89203 25.1514 9.89203Z" fill="url(#paint71_linear)"/>
<path d="M35.4752 9.89203H31.6089V29.9434H35.4752V9.89203Z" fill="url(#paint72_linear)"/>
<path d="M52.8329 26.8381C53.3265 26.5502 53.635 26.1389 53.7584 25.6247H57.7481C57.2957 27.1466 56.4936 28.2983 55.3625 29.1209C54.2314 29.9435 52.8741 30.3343 51.3111 30.3343C46.437 30.3343 43.9897 27.6607 43.9897 22.3343C43.9897 21.2031 44.1543 20.1749 44.4628 19.27C44.7712 18.3651 45.2442 17.563 45.8406 16.9049C46.437 16.2469 47.1774 15.7533 48.0617 15.4037C48.9255 15.0541 49.9332 14.8895 51.0643 14.8895C53.3265 14.8895 55.0335 15.6093 56.1851 17.0695C57.3368 18.5296 57.9332 20.7096 57.9332 23.6299H47.8561C47.9178 24.7404 48.2468 25.6247 48.8227 26.2828C49.3985 26.9409 50.18 27.27 51.126 27.27C51.7841 27.27 52.3599 27.126 52.8329 26.8381ZM48.9666 18.8175C48.3908 19.3934 48.0823 20.1749 48 21.1826H53.964C53.9435 20.6479 53.8406 20.1749 53.6761 19.7636C53.5116 19.3523 53.2854 19.0232 52.9975 18.7558C52.7301 18.4885 52.4011 18.2828 52.0514 18.1594C51.7018 18.0361 51.3316 17.9744 50.9409 17.9744C50.2005 17.9538 49.5424 18.2417 48.9666 18.8175Z" fill="url(#paint73_linear)"/>
<path d="M40.8022 11.3111V15.2802H42.941V18.036H40.8022V24.0617C40.8022 25.0078 40.9667 25.7275 41.3163 26.2211C41.6454 26.7147 42.2006 26.9615 42.941 26.982C42.9821 27.126 43.9281 29.6761 45.4294 30.3548H42.941C41.8922 30.3548 40.9873 30.1903 40.2264 29.8818C39.4654 29.5733 38.8485 29.1414 38.3755 28.6067C37.8819 28.072 37.5323 27.4345 37.3266 26.7353C37.1004 26.0155 36.9976 25.2545 36.9976 24.4731V11.3111H40.8022Z" fill="url(#paint74_linear)"/>
<path d="M66.3856 15.2596L67.4961 19.1054C67.1876 19.0643 66.8586 19.0231 66.5501 19.0231C64.185 19.0231 63.0128 20.1748 63.0128 22.4987V29.964H59.1465V15.6093H62.766V17.3368C63.0745 16.8432 63.4241 16.473 63.7532 16.2057C64.1028 15.9383 64.4524 15.7327 64.8226 15.5681C65.1928 15.4242 65.5629 15.3213 65.9331 15.3008C66.0976 15.2596 66.2416 15.2596 66.3856 15.2596Z" fill="url(#paint75_linear)"/>
<path d="M126.129 19.4756L119.28 16.5347C118.931 16.3908 118.643 16.3085 118.375 16.3085C118.108 16.3085 117.902 16.3702 117.717 16.5142C117.902 16.5964 118.046 16.6992 118.19 16.8021C118.231 16.7815 118.293 16.7815 118.334 16.7815C118.663 16.7815 118.931 17.0489 118.931 17.3985C118.931 17.7275 118.663 18.0154 118.334 18.0154C118.108 18.0154 117.923 17.892 117.82 17.707C117.635 17.6864 117.429 17.6658 117.224 17.6041C117.203 17.7275 117.203 17.8509 117.203 17.9949L117.347 25.5836L123.99 35.6401L132.771 29.5322L126.129 19.4756ZM128.74 27.0026C128.946 27.0026 129.111 27.1671 129.111 27.3728C129.111 27.5784 128.946 27.7635 128.74 27.7635C128.535 27.7635 128.37 27.599 128.37 27.3933C128.37 27.1877 128.535 27.0026 128.74 27.0026ZM128.062 25.6041C128.267 25.6041 128.432 25.7687 128.432 25.9743C128.432 26.18 128.267 26.3445 128.062 26.3445C127.856 26.3445 127.692 26.18 127.692 25.9743C127.692 25.7687 127.877 25.6041 128.062 25.6041ZM120.843 26.2828C120.658 25.9743 120.535 25.6453 120.473 25.3162C120.432 25.0694 120.411 24.8226 120.432 24.5759L120.185 19.9486L124.278 22.1697C124.524 22.3342 124.668 22.4165 124.874 22.5604C125.141 22.7661 125.388 23.0129 125.573 23.3214C126.396 24.6376 126.005 26.3651 124.689 27.1877C124.237 27.4756 123.722 27.6196 123.208 27.6196C122.283 27.599 121.378 27.1465 120.843 26.2828ZM123.352 27.928C123.907 27.928 124.73 27.8663 125.368 27.5373C126.437 27.0026 126.931 26.5913 126.869 26.2417C126.828 26.036 126.684 25.8304 126.478 25.8304C126.355 25.8304 126.19 25.892 126.005 26.0771C126.005 26.036 126.211 25.3985 126.725 25.3985C126.807 25.3985 126.89 25.419 126.972 25.4396C127.692 25.707 127.918 26.8998 126.314 27.8663C125.758 28.1954 125.183 28.2982 124.648 28.2982C123.599 28.2982 122.776 27.9075 122.735 27.8869C122.756 27.9075 122.982 27.928 123.352 27.928ZM128.473 29.8201C128.165 29.8201 127.856 29.6761 127.794 29.491C127.794 29.491 127.897 29.5733 128.062 29.5733C128.329 29.5733 128.699 29.4293 128.679 29.0386C128.658 28.6684 128.411 28.5656 128.123 28.5656C127.897 28.5656 127.65 28.6478 127.424 28.7918C127.075 28.9769 126.17 29.3471 125.162 29.3471C124.524 29.3471 123.866 29.2031 123.27 28.7918C123.291 28.7918 123.62 28.8946 124.195 28.8946C124.771 28.8946 125.553 28.7918 126.416 28.401C127.157 28.072 127.774 27.8869 128.247 27.8869C128.864 27.8869 129.213 28.1954 129.296 28.8946C129.337 29.5733 128.905 29.8201 128.473 29.8201ZM129.275 26.5501C129.152 26.5501 129.069 26.4473 129.069 26.3445C129.069 26.2211 129.172 26.1388 129.275 26.1388C129.398 26.1388 129.481 26.2211 129.481 26.3445C129.481 26.4679 129.378 26.5501 129.275 26.5501Z" fill="url(#paint76_linear)"/>
<path d="M100.051 16.3908C99.5576 15.8972 98.92 15.5271 98.118 15.2803C97.3159 15.0129 96.3288 14.8895 95.1977 14.8895C94.0254 14.8895 93.0383 15.0129 92.2157 15.2597C91.3931 15.5065 90.735 15.8561 90.2414 16.3291C89.7272 16.7816 89.3776 17.3368 89.1308 17.9744C88.9046 18.6119 88.7812 19.3111 88.7607 20.072H92.3596C92.4625 19.4139 92.7092 18.8792 93.0794 18.4885C93.4702 18.0978 94.1077 17.8921 94.992 17.8921C95.7529 17.8921 96.3494 18.0361 96.7812 18.3034C97.2337 18.5708 97.4599 18.9409 97.4599 19.4139C97.4599 19.9281 97.2954 20.2983 96.9458 20.5245C96.6167 20.7507 95.9586 20.9358 94.992 21.0798C94.0254 21.2237 93.1206 21.3677 92.2979 21.5528C91.4753 21.7173 90.7761 21.9846 90.1797 22.3343C89.5833 22.6839 89.1103 23.1774 88.7812 23.815C88.4522 24.4525 88.2671 25.2751 88.2671 26.3445C88.2671 27.5373 88.6578 28.5039 89.4393 29.2443C90.2208 29.9846 91.4547 30.3548 93.1411 30.3548C94.1283 30.3548 95.0126 30.2109 95.753 29.8818C96.5139 29.5733 97.1103 29.162 97.5627 28.6479C97.6038 29.1415 97.6861 29.5733 97.8095 29.9641H101.408V20.689C101.408 19.7636 101.306 18.9615 101.079 18.2211C100.874 17.4808 100.524 16.8844 100.051 16.3908ZM97.5216 24.3702C97.5216 24.8021 97.4188 25.2134 97.2337 25.6042C97.0486 25.9949 96.8018 26.324 96.4933 26.6119C96.1848 26.8998 95.8146 27.126 95.3828 27.2906C94.9509 27.4551 94.4985 27.5373 94.0049 27.5373C92.7504 27.5373 92.1334 26.9821 92.1334 25.8921C92.1334 25.2546 92.3391 24.761 92.7504 24.4319C93.1617 24.1029 93.9226 23.815 95.0332 23.5888C95.753 23.4448 96.2877 23.3214 96.6578 23.198C97.028 23.0746 97.3159 22.9101 97.5216 22.725V24.3702Z" fill="url(#paint77_linear)"/>
<path d="M84.7506 15.2803L82.5295 24.6993L80.2262 15.2803H76.2981L74.2827 24.6993L71.8971 15.2803H67.8457L71.9999 29.9435H75.9485L78.2724 21.4294L80.5963 29.9435H84.5449L88.7403 15.2803H84.7506Z" fill="url(#paint78_linear)"/>
<path d="M115.27 16.7815C115.249 16.761 115.229 16.7404 115.208 16.7404C115.167 16.761 115.126 16.8021 115.085 16.8227C115.064 16.8432 115.023 16.8432 115.003 16.8638C114.941 16.8844 114.859 16.9049 114.797 16.9049C114.427 16.9049 114.118 16.5964 114.118 16.2263C114.118 15.8561 114.427 15.5476 114.797 15.5476C115.023 15.5476 115.229 15.671 115.352 15.8561C115.352 15.8561 115.352 15.8766 115.373 15.8972C115.393 15.8972 115.414 15.8972 115.455 15.8972C115.496 15.8972 115.558 15.8972 115.599 15.8972C115.702 15.8972 115.825 15.9178 115.928 15.9383L115.99 15.7738L116.154 15.3008H112.062L108.997 25.8304L105.995 15.3008H101.553L106.797 30.3137C107.064 31.1363 106.982 31.7121 106.53 32.0823C106.077 32.4525 105.481 32.6376 104.699 32.6376H103.589V35.8458C103.712 35.8458 103.856 35.8458 104.021 35.8664C104.206 35.8869 104.35 35.9075 104.452 35.9486C104.576 35.9486 104.699 35.9486 104.864 35.9486C105.028 35.9486 105.152 35.9486 105.275 35.9486C106.859 35.9486 108.01 35.7224 108.71 35.2494C109.409 34.7147 109.985 33.7892 110.458 32.5142L115.599 16.9872C115.455 16.9049 115.352 16.8432 115.27 16.7815Z" fill="url(#paint79_linear)"/>
<path d="M115.455 16.6993C115.517 16.7404 115.558 16.761 115.619 16.8021L115.702 16.5553L115.846 16.1029C115.784 16.1029 115.722 16.0823 115.661 16.0823C115.578 16.0823 115.496 16.0617 115.434 16.0617H115.414C115.455 16.2057 115.455 16.4319 115.332 16.5964C115.373 16.6376 115.414 16.6581 115.455 16.6993Z" fill="url(#paint80_linear)"/>
<path d="M118.191 16.8021C118.499 17.0283 118.684 17.2545 118.622 17.4602C118.561 17.6247 118.355 17.707 118.005 17.707C117.944 17.707 117.882 17.707 117.82 17.707C117.635 17.6864 117.43 17.6659 117.224 17.6042C116.998 17.563 116.751 17.4808 116.504 17.3985C116.216 17.2957 115.949 17.1723 115.702 17.0489C115.538 16.9666 115.394 16.8638 115.25 16.7815C114.921 16.5553 114.736 16.3085 114.818 16.1234C114.879 15.9589 115.085 15.8766 115.435 15.8766C115.476 15.8766 115.538 15.8766 115.579 15.8766C115.723 15.8766 115.908 15.9178 116.072 15.9383C116.34 16 116.628 16.0617 116.936 16.1646C117.203 16.2674 117.471 16.3702 117.718 16.4936C117.903 16.617 118.067 16.6993 118.191 16.8021ZM118.458 17.3985C118.499 17.2957 118.335 17.1106 118.005 16.9049C117.882 16.8227 117.738 16.7404 117.574 16.6581C117.368 16.5553 117.142 16.4525 116.874 16.3702C116.586 16.2674 116.278 16.1851 116.011 16.144C115.887 16.1234 115.764 16.1029 115.64 16.0823C115.558 16.0823 115.476 16.0617 115.414 16.0617C115.126 16.0617 115.003 16.1234 114.982 16.1851C114.941 16.288 115.106 16.473 115.435 16.6787C115.538 16.7404 115.64 16.8021 115.764 16.8638C115.99 16.9872 116.257 17.1106 116.566 17.2134C116.792 17.2957 117.018 17.3574 117.245 17.3985C117.43 17.4396 117.594 17.4602 117.759 17.4808C117.841 17.4808 117.944 17.5013 118.005 17.5013C118.314 17.5219 118.437 17.4602 118.458 17.3985Z" fill="url(#paint81_linear)"/>
<path d="M72 24.7198C111.765 24.7198 144 19.1861 144 12.3599C144 5.53371 111.765 0 72 0C32.2355 0 0 5.53371 0 12.3599C0 19.1861 32.2355 24.7198 72 24.7198Z" fill="url(#paint82_linear)"/>
<defs>
<linearGradient id="paint0_linear" x1="117.911" y1="17.3901" x2="118.977" y2="17.4243" gradientUnits="userSpaceOnUse">
<stop stop-color="#003375"/>
<stop offset="1" stop-color="#037FC9"/>
</linearGradient>
<linearGradient id="paint1_linear" x1="117.892" y1="17.9744" x2="118.958" y2="18.0085" gradientUnits="userSpaceOnUse">
<stop stop-color="#003375"/>
<stop offset="1" stop-color="#037FC9"/>
</linearGradient>
<linearGradient id="paint2_linear" x1="117.911" y1="17.3686" x2="118.978" y2="17.4028" gradientUnits="userSpaceOnUse">
<stop stop-color="#003375"/>
<stop offset="1" stop-color="#037FC9"/>
</linearGradient>
<linearGradient id="paint3_linear" x1="116.923" y1="16.4155" x2="118.375" y2="16.4155" gradientUnits="userSpaceOnUse">
<stop stop-color="#003375"/>
<stop offset="1" stop-color="#037FC9"/>
</linearGradient>
<linearGradient id="paint4_linear" x1="118.169" y1="17.469" x2="115.423" y2="16.1027" gradientUnits="userSpaceOnUse">
<stop stop-color="#003375"/>
<stop offset="1" stop-color="#037FC9"/>
</linearGradient>
<linearGradient id="paint5_linear" x1="114.542" y1="16.1375" x2="115.458" y2="16.1375" gradientUnits="userSpaceOnUse">
<stop stop-color="#003375"/>
<stop offset="1" stop-color="#037FC9"/>
</linearGradient>
<linearGradient id="paint6_linear" x1="114.448" y1="15.8801" x2="115.91" y2="15.8801" gradientUnits="userSpaceOnUse">
<stop stop-color="#003375"/>
<stop offset="1" stop-color="#037FC9"/>
</linearGradient>
<linearGradient id="paint7_linear" x1="114.448" y1="15.8801" x2="115.91" y2="15.8801" gradientUnits="userSpaceOnUse">
<stop stop-color="#003375"/>
<stop offset="1" stop-color="#037FC9"/>
</linearGradient>
<linearGradient id="paint8_linear" x1="114.306" y1="16.8548" x2="115.564" y2="16.8548" gradientUnits="userSpaceOnUse">
<stop stop-color="#003375"/>
<stop offset="1" stop-color="#037FC9"/>
</linearGradient>
<linearGradient id="paint9_linear" x1="114.306" y1="16.8548" x2="115.564" y2="16.8548" gradientUnits="userSpaceOnUse">
<stop stop-color="#003375"/>
<stop offset="1" stop-color="#037FC9"/>
</linearGradient>
<linearGradient id="paint10_linear" x1="114.306" y1="16.4838" x2="115.458" y2="16.4838" gradientUnits="userSpaceOnUse">
<stop stop-color="#003375"/>
<stop offset="1" stop-color="#037FC9"/>
</linearGradient>
<linearGradient id="paint11_linear" x1="113.887" y1="15.7123" x2="115.361" y2="15.7123" gradientUnits="userSpaceOnUse">
<stop stop-color="#003375"/>
<stop offset="1" stop-color="#037FC9"/>
</linearGradient>
<linearGradient id="paint12_linear" x1="113.887" y1="15.6924" x2="115.344" y2="15.6924" gradientUnits="userSpaceOnUse">
<stop stop-color="#003375"/>
<stop offset="1" stop-color="#037FC9"/>
</linearGradient>
<linearGradient id="paint13_linear" x1="113.887" y1="16.8776" x2="114.996" y2="16.8776" gradientUnits="userSpaceOnUse">
<stop stop-color="#003375"/>
<stop offset="1" stop-color="#037FC9"/>
</linearGradient>
<linearGradient id="paint14_linear" x1="113.887" y1="16.8923" x2="114.881" y2="16.8923" gradientUnits="userSpaceOnUse">
<stop stop-color="#003375"/>
<stop offset="1" stop-color="#037FC9"/>
</linearGradient>
<linearGradient id="paint15_linear" x1="113.985" y1="16.874" x2="114.995" y2="16.874" gradientUnits="userSpaceOnUse">
<stop stop-color="#003375"/>
<stop offset="1" stop-color="#037FC9"/>
</linearGradient>
<linearGradient id="paint16_linear" x1="108.073" y1="20.5338" x2="112.034" y2="20.5338" gradientUnits="userSpaceOnUse">
<stop stop-color="#003375"/>
<stop offset="1" stop-color="#037FC9"/>
</linearGradient>
<linearGradient id="paint17_linear" x1="100.619" y1="23.9431" x2="106.916" y2="23.9431" gradientUnits="userSpaceOnUse">
<stop stop-color="#003375"/>
<stop offset="1" stop-color="#037FC9"/>
</linearGradient>
<linearGradient id="paint18_linear" x1="102.673" y1="34.2173" x2="103.569" y2="34.2173" gradientUnits="userSpaceOnUse">
<stop stop-color="#003375"/>
<stop offset="1" stop-color="#037FC9"/>
</linearGradient>
<linearGradient id="paint19_linear" x1="96.693" y1="29.2969" x2="97.8271" y2="29.2969" gradientUnits="userSpaceOnUse">
<stop stop-color="#003375"/>
<stop offset="1" stop-color="#037FC9"/>
</linearGradient>
<linearGradient id="paint20_linear" x1="96.693" y1="29.2969" x2="97.8271" y2="29.2969" gradientUnits="userSpaceOnUse">
<stop stop-color="#003375"/>
<stop offset="1" stop-color="#037FC9"/>
</linearGradient>
<linearGradient id="paint21_linear" x1="94.8485" y1="27.3375" x2="96.966" y2="22.6642" gradientUnits="userSpaceOnUse">
<stop stop-color="#037FC9"/>
<stop offset="1" stop-color="#003375"/>
</linearGradient>
<linearGradient id="paint22_linear" x1="87.8646" y1="17.4659" x2="95.1811" y2="17.4659" gradientUnits="userSpaceOnUse">
<stop stop-color="#003375"/>
<stop offset="1" stop-color="#037FC9"/>
</linearGradient>
<linearGradient id="paint23_linear" x1="91.7682" y1="30.3374" x2="92.8635" y2="17.7048" gradientUnits="userSpaceOnUse">
<stop stop-color="#003375"/>
<stop offset="0.898" stop-color="#037FC9"/>
<stop offset="0.9949" stop-color="#003375"/>
</linearGradient>
<linearGradient id="paint24_linear" x1="81.6239" y1="19.9868" x2="84.7493" y2="19.9868" gradientUnits="userSpaceOnUse">
<stop stop-color="#003375"/>
<stop offset="1" stop-color="#0399C9"/>
</linearGradient>
<linearGradient id="paint25_linear" x1="77.3741" y1="25.6867" x2="80.588" y2="25.6867" gradientUnits="userSpaceOnUse">
<stop stop-color="#003375"/>
<stop offset="1" stop-color="#0399C9"/>
</linearGradient>
<linearGradient id="paint26_linear" x1="73.3894" y1="19.9868" x2="76.3083" y2="19.9868" gradientUnits="userSpaceOnUse">
<stop stop-color="#003375"/>
<stop offset="1" stop-color="#0399C9"/>
</linearGradient>
<linearGradient id="paint27_linear" x1="66.9396" y1="22.6123" x2="71.9975" y2="22.6123" gradientUnits="userSpaceOnUse">
<stop stop-color="#003375"/>
<stop offset="1" stop-color="#0399C9"/>
</linearGradient>
<linearGradient id="paint28_linear" x1="128.473" y1="26.3472" x2="129.477" y2="26.3472" gradientUnits="userSpaceOnUse">
<stop stop-color="#003375"/>
<stop offset="0.1852" stop-color="#00387A"/>
<stop offset="0.4188" stop-color="#014889"/>
<stop offset="0.6783" stop-color="#0262A1"/>
<stop offset="0.9548" stop-color="#0385C3"/>
<stop offset="1" stop-color="#038CC9"/>
</linearGradient>
<linearGradient id="paint29_linear" x1="128.503" y1="26.5474" x2="129.342" y2="26.5474" gradientUnits="userSpaceOnUse">
<stop stop-color="#003375"/>
<stop offset="0.1852" stop-color="#00387A"/>
<stop offset="0.4188" stop-color="#014889"/>
<stop offset="0.6783" stop-color="#0262A1"/>
<stop offset="0.9548" stop-color="#0385C3"/>
<stop offset="1" stop-color="#038CC9"/>
</linearGradient>
<linearGradient id="paint30_linear" x1="128.473" y1="26.3406" x2="129.477" y2="26.3406" gradientUnits="userSpaceOnUse">
<stop stop-color="#003375"/>
<stop offset="0.1852" stop-color="#00387A"/>
<stop offset="0.4188" stop-color="#014889"/>
<stop offset="0.6783" stop-color="#0262A1"/>
<stop offset="0.9548" stop-color="#0385C3"/>
<stop offset="1" stop-color="#038CC9"/>
</linearGradient>
<linearGradient id="paint31_linear" x1="127.936" y1="27.3836" x2="129.104" y2="27.3836" gradientUnits="userSpaceOnUse">
<stop stop-color="#003375"/>
<stop offset="0.1852" stop-color="#00387A"/>
<stop offset="0.4188" stop-color="#014889"/>
<stop offset="0.6783" stop-color="#0262A1"/>
<stop offset="0.9548" stop-color="#0385C3"/>
<stop offset="1" stop-color="#038CC9"/>
</linearGradient>
<linearGradient id="paint32_linear" x1="127.936" y1="27.7527" x2="128.788" y2="27.7527" gradientUnits="userSpaceOnUse">
<stop stop-color="#003375"/>
<stop offset="0.1852" stop-color="#00387A"/>
<stop offset="0.4188" stop-color="#014889"/>
<stop offset="0.6783" stop-color="#0262A1"/>
<stop offset="0.9548" stop-color="#0385C3"/>
<stop offset="1" stop-color="#038CC9"/>
</linearGradient>
<linearGradient id="paint33_linear" x1="127.991" y1="27.7406" x2="128.864" y2="27.7406" gradientUnits="userSpaceOnUse">
<stop stop-color="#003375"/>
<stop offset="0.1852" stop-color="#00387A"/>
<stop offset="0.4188" stop-color="#014889"/>
<stop offset="0.6783" stop-color="#0262A1"/>
<stop offset="0.9548" stop-color="#0385C3"/>
<stop offset="1" stop-color="#038CC9"/>
</linearGradient>
<linearGradient id="paint34_linear" x1="127.936" y1="27.3709" x2="129.104" y2="27.3709" gradientUnits="userSpaceOnUse">
<stop stop-color="#003375"/>
<stop offset="0.1852" stop-color="#00387A"/>
<stop offset="0.4188" stop-color="#014889"/>
<stop offset="0.6783" stop-color="#0262A1"/>
<stop offset="0.9548" stop-color="#0385C3"/>
<stop offset="1" stop-color="#038CC9"/>
</linearGradient>
<linearGradient id="paint35_linear" x1="127.275" y1="25.9745" x2="128.442" y2="25.9745" gradientUnits="userSpaceOnUse">
<stop stop-color="#003375"/>
<stop offset="0.1852" stop-color="#00387A"/>
<stop offset="0.4188" stop-color="#014889"/>
<stop offset="0.6783" stop-color="#0262A1"/>
<stop offset="0.9548" stop-color="#0385C3"/>
<stop offset="1" stop-color="#038CC9"/>
</linearGradient>
<linearGradient id="paint36_linear" x1="127.33" y1="26.3323" x2="128.202" y2="26.3323" gradientUnits="userSpaceOnUse">
<stop stop-color="#003375"/>
<stop offset="0.1852" stop-color="#00387A"/>
<stop offset="0.4188" stop-color="#014889"/>
<stop offset="0.6783" stop-color="#0262A1"/>
<stop offset="0.9548" stop-color="#0385C3"/>
<stop offset="1" stop-color="#038CC9"/>
</linearGradient>
<linearGradient id="paint37_linear" x1="127.276" y1="25.9624" x2="128.443" y2="25.9624" gradientUnits="userSpaceOnUse">
<stop stop-color="#003375"/>
<stop offset="0.1852" stop-color="#00387A"/>
<stop offset="0.4188" stop-color="#014889"/>
<stop offset="0.6783" stop-color="#0262A1"/>
<stop offset="0.9548" stop-color="#0385C3"/>
<stop offset="1" stop-color="#038CC9"/>
</linearGradient>
<linearGradient id="paint38_linear" x1="126.991" y1="29.5196" x2="128.121" y2="29.5196" gradientUnits="userSpaceOnUse">
<stop stop-color="#003375"/>
<stop offset="1" stop-color="#037FC9"/>
</linearGradient>
<linearGradient id="paint39_linear" x1="126.991" y1="29.5196" x2="128.121" y2="29.5196" gradientUnits="userSpaceOnUse">
<stop stop-color="#003375"/>
<stop offset="1" stop-color="#037FC9"/>
</linearGradient>
<linearGradient id="paint40_linear" x1="125.205" y1="25.9539" x2="126.472" y2="25.9539" gradientUnits="userSpaceOnUse">
<stop stop-color="#003375"/>
<stop offset="1" stop-color="#037FC9"/>
</linearGradient>
<linearGradient id="paint41_linear" x1="125.205" y1="25.9698" x2="126.315" y2="25.9698" gradientUnits="userSpaceOnUse">
<stop stop-color="#003375"/>
<stop offset="1" stop-color="#037FC9"/>
</linearGradient>
<linearGradient id="paint42_linear" x1="125.518" y1="25.8471" x2="126.415" y2="25.8471" gradientUnits="userSpaceOnUse">
<stop stop-color="#003375"/>
<stop offset="1" stop-color="#037FC9"/>
</linearGradient>
<linearGradient id="paint43_linear" x1="124.335" y1="28.949" x2="128.14" y2="28.949" gradientUnits="userSpaceOnUse">
<stop stop-color="#003375"/>
<stop offset="1" stop-color="#037FC9"/>
</linearGradient>
<linearGradient id="paint44_linear" x1="121.946" y1="27.9133" x2="123.347" y2="27.9133" gradientUnits="userSpaceOnUse">
<stop stop-color="#003375"/>
<stop offset="1" stop-color="#037FC9"/>
</linearGradient>
<linearGradient id="paint45_linear" x1="121.946" y1="27.9133" x2="123.347" y2="27.9133" gradientUnits="userSpaceOnUse">
<stop stop-color="#003375"/>
<stop offset="1" stop-color="#037FC9"/>
</linearGradient>
<linearGradient id="paint46_linear" x1="119.381" y1="23.7747" x2="126.001" y2="23.7747" gradientUnits="userSpaceOnUse">
<stop stop-color="#003375"/>
<stop offset="1" stop-color="#037FC9"/>
</linearGradient>
<linearGradient id="paint47_linear" x1="116.555" y1="30.6118" x2="123.998" y2="30.6118" gradientUnits="userSpaceOnUse">
<stop stop-color="#003375"/>
<stop offset="1" stop-color="#037FC9"/>
</linearGradient>
<linearGradient id="paint48_linear" x1="116.458" y1="17.0368" x2="117.58" y2="17.0368" gradientUnits="userSpaceOnUse">
<stop stop-color="#003375"/>
<stop offset="1" stop-color="#037FC9"/>
</linearGradient>
<linearGradient id="paint49_linear" x1="116.456" y1="17.0368" x2="117.578" y2="17.0368" gradientUnits="userSpaceOnUse">
<stop stop-color="#003375"/>
<stop offset="1" stop-color="#037FC9"/>
</linearGradient>
<linearGradient id="paint50_linear" x1="116.456" y1="17.464" x2="117.764" y2="17.464" gradientUnits="userSpaceOnUse">
<stop stop-color="#003375"/>
<stop offset="1" stop-color="#037FC9"/>
</linearGradient>
<linearGradient id="paint51_linear" x1="116.456" y1="17.464" x2="117.764" y2="17.464" gradientUnits="userSpaceOnUse">
<stop stop-color="#003375"/>
<stop offset="1" stop-color="#037FC9"/>
</linearGradient>
<linearGradient id="paint52_linear" x1="116.419" y1="21.595" x2="117.352" y2="21.595" gradientUnits="userSpaceOnUse">
<stop stop-color="#003375"/>
<stop offset="1" stop-color="#037FC9"/>
</linearGradient>
<linearGradient id="paint53_linear" x1="114.013" y1="16.8212" x2="118.019" y2="16.8212" gradientUnits="userSpaceOnUse">
<stop stop-color="#003375"/>
<stop offset="1" stop-color="#037FC9"/>
</linearGradient>
<linearGradient id="paint54_linear" x1="114.237" y1="15.9165" x2="115.203" y2="15.9165" gradientUnits="userSpaceOnUse">
<stop stop-color="#003375"/>
<stop offset="1" stop-color="#037FC9"/>
</linearGradient>
<linearGradient id="paint55_linear" x1="114.407" y1="15.8879" x2="115.434" y2="15.8879" gradientUnits="userSpaceOnUse">
<stop stop-color="#003375"/>
<stop offset="1" stop-color="#037FC9"/>
</linearGradient>
<linearGradient id="paint56_linear" x1="114.013" y1="16.7926" x2="118.019" y2="16.7926" gradientUnits="userSpaceOnUse">
<stop stop-color="#003375"/>
<stop offset="1" stop-color="#037FC9"/>
</linearGradient>
<linearGradient id="paint57_linear" x1="127.678" y1="29.8177" x2="128.628" y2="29.8177" gradientUnits="userSpaceOnUse">
<stop stop-color="#003375"/>
<stop offset="1" stop-color="#037FC9"/>
</linearGradient>
<linearGradient id="paint58_linear" x1="127.678" y1="29.8179" x2="128.628" y2="29.8179" gradientUnits="userSpaceOnUse">
<stop stop-color="#003375"/>
<stop offset="1" stop-color="#037FC9"/>
</linearGradient>
<linearGradient id="paint59_linear" x1="126.933" y1="28.8416" x2="129.273" y2="28.8416" gradientUnits="userSpaceOnUse">
<stop stop-color="#003375"/>
<stop offset="0.1852" stop-color="#00387A"/>
<stop offset="0.4188" stop-color="#014889"/>
<stop offset="0.6783" stop-color="#0262A1"/>
<stop offset="0.9548" stop-color="#0385C3"/>
<stop offset="1" stop-color="#038CC9"/>
</linearGradient>
<linearGradient id="paint60_linear" x1="127.832" y1="29.8106" x2="128.844" y2="29.8106" gradientUnits="userSpaceOnUse">
<stop stop-color="#003375"/>
<stop offset="1" stop-color="#037FC9"/>
</linearGradient>
<linearGradient id="paint61_linear" x1="127.17" y1="29.7911" x2="128.742" y2="29.7911" gradientUnits="userSpaceOnUse">
<stop stop-color="#003375"/>
<stop offset="1" stop-color="#037FC9"/>
</linearGradient>
<linearGradient id="paint62_linear" x1="127.174" y1="29.3541" x2="128.724" y2="29.3541" gradientUnits="userSpaceOnUse">
<stop stop-color="#003375"/>
<stop offset="1" stop-color="#037FC9"/>
</linearGradient>
<linearGradient id="paint63_linear" x1="127.678" y1="29.8179" x2="128.628" y2="29.8179" gradientUnits="userSpaceOnUse">
<stop stop-color="#003375"/>
<stop offset="1" stop-color="#037FC9"/>
</linearGradient>
<linearGradient id="paint64_linear" x1="127.19" y1="29.8179" x2="128.72" y2="29.8179" gradientUnits="userSpaceOnUse">
<stop stop-color="#003375"/>
<stop offset="1" stop-color="#037FC9"/>
</linearGradient>
<linearGradient id="paint65_linear" x1="127.832" y1="29.7881" x2="128.815" y2="29.7881" gradientUnits="userSpaceOnUse">
<stop stop-color="#003375"/>
<stop offset="1" stop-color="#037FC9"/>
</linearGradient>
<linearGradient id="paint66_linear" x1="127.19" y1="29.7881" x2="128.72" y2="29.7881" gradientUnits="userSpaceOnUse">
<stop stop-color="#003375"/>
<stop offset="1" stop-color="#037FC9"/>
</linearGradient>
<linearGradient id="paint67_linear" x1="123.853" y1="26.8569" x2="127.535" y2="26.8569" gradientUnits="userSpaceOnUse">
<stop stop-color="#003375"/>
<stop offset="0.1852" stop-color="#00387A"/>
<stop offset="0.4188" stop-color="#014889"/>
<stop offset="0.6783" stop-color="#0262A1"/>
<stop offset="0.9548" stop-color="#0385C3"/>
<stop offset="1" stop-color="#038CC9"/>
</linearGradient>
<linearGradient id="paint68_linear" x1="117.628" y1="35.0243" x2="117.628" y2="16.0208" gradientUnits="userSpaceOnUse">
<stop stop-color="#00569F"/>
<stop offset="1" stop-color="#027FCA"/>
</linearGradient>
<linearGradient id="paint69_linear" x1="28.0436" y1="30.0031" x2="28.0436" y2="9.84384" gradientUnits="userSpaceOnUse">
<stop stop-color="#398000"/>
<stop offset="1" stop-color="#91CD00"/>
</linearGradient>
<linearGradient id="paint70_linear" x1="28.0436" y1="30.0033" x2="28.0436" y2="9.84385" gradientUnits="userSpaceOnUse">
<stop stop-color="#398000"/>
<stop offset="1" stop-color="#91CD00"/>
</linearGradient>
<linearGradient id="paint71_linear" x1="21.0137" y1="30.0032" x2="21.0137" y2="9.8438" gradientUnits="userSpaceOnUse">
<stop stop-color="#398000"/>
<stop offset="1" stop-color="#91CD00"/>
</linearGradient>
<linearGradient id="paint72_linear" x1="33.5425" y1="30.0032" x2="33.5425" y2="9.8438" gradientUnits="userSpaceOnUse">
<stop stop-color="#398000"/>
<stop offset="1" stop-color="#91CD00"/>
</linearGradient>
<linearGradient id="paint73_linear" x1="50.9959" y1="30.0033" x2="50.9959" y2="9.84389" gradientUnits="userSpaceOnUse">
<stop stop-color="#398000"/>
<stop offset="1" stop-color="#91CD00"/>
</linearGradient>
<linearGradient id="paint74_linear" x1="41.2189" y1="30.0033" x2="41.2189" y2="9.84399" gradientUnits="userSpaceOnUse">
<stop stop-color="#398000"/>
<stop offset="1" stop-color="#91CD00"/>
</linearGradient>
<linearGradient id="paint75_linear" x1="63.3275" y1="30.0032" x2="63.3275" y2="9.84375" gradientUnits="userSpaceOnUse">
<stop stop-color="#398000"/>
<stop offset="1" stop-color="#91CD00"/>
</linearGradient>
<linearGradient id="paint76_linear" x1="124.993" y1="35.0258" x2="124.993" y2="16.0208" gradientUnits="userSpaceOnUse">
<stop stop-color="#00569F"/>
<stop offset="1" stop-color="#027FCA"/>
</linearGradient>
<linearGradient id="paint77_linear" x1="94.8544" y1="37.3756" x2="94.8544" y2="15.9961" gradientUnits="userSpaceOnUse">
<stop stop-color="#00569F"/>
<stop offset="1" stop-color="#027FCA"/>
</linearGradient>
<linearGradient id="paint78_linear" x1="78.284" y1="37.3756" x2="78.284" y2="15.9961" gradientUnits="userSpaceOnUse">
<stop stop-color="#00569F"/>
<stop offset="1" stop-color="#027FCA"/>
</linearGradient>
<linearGradient id="paint79_linear" x1="108.819" y1="37.3755" x2="108.819" y2="15.9961" gradientUnits="userSpaceOnUse">
<stop stop-color="#00569F"/>
<stop offset="1" stop-color="#027FCA"/>
</linearGradient>
<linearGradient id="paint80_linear" x1="115.589" y1="16.8453" x2="115.589" y2="16.0886" gradientUnits="userSpaceOnUse">
<stop stop-color="#00569F"/>
<stop offset="1" stop-color="#027FCA"/>
</linearGradient>
<linearGradient id="paint81_linear" x1="117.412" y1="19.8814" x2="116.947" y2="17.7849" gradientUnits="userSpaceOnUse">
<stop stop-color="#00569F"/>
<stop offset="1" stop-color="#027FCA"/>
</linearGradient>
<linearGradient id="paint82_linear" x1="71.9974" y1="24.6307" x2="71.9974" y2="15.5784" gradientUnits="userSpaceOnUse">
<stop stop-color="white"/>
<stop offset="0.1415" stop-color="white" stop-opacity="0.8585"/>
<stop offset="1" stop-color="white" stop-opacity="0"/>
</linearGradient>
</defs>
</svg>
