<svg width="24" height="24" viewBox="0 0 24 24" fill="none" xmlns="http://www.w3.org/2000/svg">
<path d="M12.6874 9.00661H9.96872V6.37831C9.96872 6.13651 9.76572 5.94026 9.51559 5.94026C9.26547 5.94026 9.06247 6.13651 9.06247 6.37831V9.00661H6.34375C6.09362 9.00661 5.89062 9.20286 5.89062 9.44466C5.89062 9.68647 6.09362 9.88271 6.34375 9.88271H9.06247V12.511C9.06247 12.7528 9.26547 12.9491 9.51559 12.9491C9.76572 12.9491 9.96872 12.7528 9.96872 12.511V9.88271H12.6874C12.9376 9.88271 13.1406 9.68647 13.1406 9.44466C13.1406 9.20286 12.9376 9.00661 12.6874 9.00661Z" fill="white"/>
<path d="M22.9827 22.7058L16.2498 15.9366C17.9671 14.2715 19.0311 11.9762 19.0311 9.44466C19.0311 4.37204 14.7627 0.245605 9.51553 0.245605C4.2684 0.245605 0 4.37204 0 9.44466C0 14.5173 4.2684 18.6437 9.51553 18.6437C11.8187 18.6437 13.9326 17.8478 15.5801 16.5271L22.3293 23.3129C22.4181 23.4027 22.5369 23.4474 22.656 23.4474C22.7693 23.4474 22.8821 23.4066 22.97 23.3252C23.1504 23.1574 23.1558 22.8801 22.9827 22.7058ZM0.906241 9.44466C0.906241 4.85521 4.76819 1.12171 9.51553 1.12171C14.2629 1.12171 18.1248 4.85521 18.1248 9.44466C18.1248 14.0341 14.2629 17.7676 9.51553 17.7676C4.76819 17.7676 0.906241 14.0341 0.906241 9.44466Z" fill="white"/>
</svg>
