<svg width="42" height="40" viewBox="0 0 42 40" fill="none" xmlns="http://www.w3.org/2000/svg">
<path d="M15.3949 22.8083C13.5806 22.8083 12.1045 24.2845 12.1045 26.0988C12.1045 27.159 12.6189 28.1505 13.4676 28.7651V31.5003C13.4676 32.563 14.3322 33.4277 15.3949 33.4277C16.4576 33.4277 17.3222 32.563 17.3222 31.5003V28.7651C18.171 28.1505 18.6853 27.159 18.6853 26.0988C18.6853 24.2845 17.2093 22.8083 15.3949 22.8083ZM16.414 27.9042C16.2231 28.0123 16.1052 28.2146 16.1052 28.4338V31.5003C16.1052 31.892 15.7866 32.2106 15.395 32.2106C15.0033 32.2106 14.6848 31.892 14.6848 31.5003V28.4338C14.6848 28.2146 14.5669 28.0123 14.376 27.9042C13.7257 27.5362 13.3217 26.8443 13.3217 26.0988C13.3216 24.9555 14.2517 24.0254 15.395 24.0254C16.5383 24.0254 17.4683 24.9555 17.4683 26.0988C17.4683 26.8443 17.0643 27.5362 16.414 27.9042Z" fill="#313131"/>
<path d="M31.8784 0.000612217C29.2388 -0.0285597 26.7516 0.985714 24.8727 2.84638C22.9935 4.70745 21.9586 7.1852 21.9586 9.82303V16.2358H1.79615C0.805764 16.2359 0 17.0416 0 18.032V38.2039C0 39.1943 0.805764 40 1.79615 40H28.9938C29.9842 40 30.79 39.1943 30.79 38.2039V18.032C30.79 17.0416 29.9842 16.2359 28.9938 16.2359H26.9341V9.91469C26.9341 7.24152 29.0665 5.02631 31.6877 4.97658C32.9987 4.95099 34.237 5.44464 35.1746 6.36457C36.1125 7.28499 36.6292 8.51322 36.6292 9.82311V13.6978C36.6292 14.7416 37.4784 15.5909 38.5223 15.5909H39.7116C40.7555 15.5909 41.6047 14.7417 41.6047 13.6978V9.94069C41.6046 4.5117 37.2415 0.0526179 31.8784 0.000612217ZM28.9938 17.453C29.3131 17.453 29.5729 17.7127 29.5729 18.032V18.8247H7.41455C7.07847 18.8247 6.80601 19.097 6.80601 19.4332C6.80601 19.7694 7.07847 20.0417 7.41455 20.0417H29.5729V22.8084H26.028C25.6919 22.8084 25.4194 23.0808 25.4194 23.4169C25.4194 23.753 25.6919 24.0255 26.028 24.0255H29.5729V27.5094H26.028C25.6919 27.5094 25.4194 27.7818 25.4194 28.118C25.4194 28.4541 25.6919 28.7265 26.028 28.7265H29.5729V32.2105H26.028C25.6919 32.2105 25.4194 32.4829 25.4194 32.8191C25.4194 33.1552 25.6919 33.4276 26.028 33.4276H29.5729V36.1942H25.5695C25.2334 36.1942 24.961 36.4666 24.961 36.8028C24.961 37.1389 25.2334 37.4113 25.5695 37.4113H29.5729V38.204C29.5729 38.5233 29.3132 38.783 28.9938 38.783H1.79615C1.47688 38.783 1.2171 38.5233 1.2171 38.204V37.4113H22.738C23.0741 37.4113 23.3466 37.139 23.3466 36.8028C23.3466 36.4667 23.0741 36.1942 22.738 36.1942H1.2171V33.4276H4.76202C5.0981 33.4276 5.37057 33.1552 5.37057 32.8191C5.37057 32.483 5.0981 32.2105 4.76202 32.2105H1.2171V28.7265H4.76202C5.0981 28.7265 5.37057 28.4542 5.37057 28.118C5.37057 27.7819 5.0981 27.5094 4.76202 27.5094H1.2171V24.0255H4.76202C5.0981 24.0255 5.37057 23.7531 5.37057 23.4169C5.37057 23.0808 5.0981 22.8084 4.76202 22.8084H1.2171V20.0417H4.58309C4.91917 20.0417 5.19163 19.7694 5.19163 19.4332C5.19163 19.097 4.91917 18.8247 4.58309 18.8247H1.2171V18.032C1.2171 17.7127 1.4768 17.453 1.79615 17.453H28.9938ZM39.7115 14.3738H38.5221C38.1494 14.3738 37.8461 14.0705 37.8461 13.6978V9.82311C37.8461 8.18379 37.2 6.64694 36.0268 5.49591C34.854 4.34512 33.3054 3.73064 31.6644 3.75965C28.385 3.82189 25.7168 6.58307 25.7168 9.91469V16.2359H23.1755V9.82311C23.1755 7.51251 24.0824 5.34192 25.729 3.71114C27.355 2.10091 29.5011 1.21722 31.7808 1.21722C31.8093 1.21722 31.838 1.21738 31.8664 1.21771C36.5649 1.26329 40.3874 5.1764 40.3874 9.94069V13.6978H40.3875C40.3875 14.0705 40.0842 14.3738 39.7115 14.3738Z" fill="#313131"/>
</svg>
