<svg width="40" height="40" viewBox="0 0 40 40" fill="none" xmlns="http://www.w3.org/2000/svg">
<path d="M2.62672 9.33735C2.72187 9.43 2.76484 9.56391 2.7414 9.69469L2.2414 12.628C2.12844 13.2843 2.40031 13.9473 2.9414 14.3354C3.47359 14.7216 4.17969 14.7698 4.75937 14.4594L7.34804 13.0787C7.46375 13.018 7.60133 13.0161 7.71875 13.0734L10.3267 14.4607C11.1358 14.9054 12.1521 14.6136 12.602 13.8073L12.632 13.8366C12.8657 14.0681 12.9717 14.3991 12.916 14.7233L12.7 15.9999H7.33203C5.49203 16.0021 4.00094 17.4932 3.99867 19.3333V36.6666C4.00086 38.5066 5.49195 39.9977 7.33203 40H32.6654C34.5054 39.9978 35.9965 38.5067 35.9987 36.6666V19.3334C35.9966 17.4934 34.5055 16.0023 32.6654 16H27.2974L27.0814 14.726C27.0256 14.4016 27.1316 14.0704 27.3654 13.8387L27.3954 13.8094C27.8458 14.6158 28.8628 14.9073 29.672 14.462L32.272 13.078C32.3858 13.0186 32.5212 13.0173 32.636 13.0747L35.236 14.4627C35.8214 14.7716 36.5316 14.7203 37.0664 14.3303C37.6012 13.9403 37.8673 13.2798 37.752 12.628L37.2513 9.69461C37.2296 9.56141 37.2753 9.4261 37.3734 9.33328L39.4807 7.25328C39.9491 6.78875 40.1158 6.09992 39.9116 5.47266C39.7075 4.84539 39.1674 4.38656 38.5153 4.28664L35.5987 3.85938C35.4715 3.84071 35.3625 3.75852 35.3094 3.64141L34.0087 0.974768C33.7211 0.378753 33.1178 2.71048e-06 32.4561 2.71048e-06H32.4501C31.7906 0.000237085 31.1899 0.379456 30.9061 0.97469L29.6094 3.63469C29.5537 3.75594 29.4407 3.84094 29.3087 3.86071L26.3914 4.28805C25.7392 4.38641 25.1994 4.84641 24.9987 5.47469C24.9462 5.64305 24.9195 5.81836 24.9194 5.99469L24.8321 5.98203C24.5113 5.93383 24.2351 5.73024 24.0941 5.43805L22.0741 1.30469C21.689 0.50844 20.8825 0.00258084 19.998 0.00258084C19.1136 0.00258084 18.3071 0.50844 17.922 1.30469L15.902 5.43805C15.7611 5.73024 15.4848 5.93383 15.1641 5.98203L15.0774 5.99469C15.0767 5.81836 15.0498 5.64305 14.9974 5.47469C14.7965 4.84516 14.2551 4.38469 13.6014 4.28735L10.6801 3.85938C10.5535 3.83899 10.4452 3.75735 10.3908 3.64141L9.09211 0.974768C8.80773 0.379534 8.20695 0.00047146 7.54742 2.71048e-06H7.5414C6.87867 -0.00116916 6.27398 0.377737 5.98609 0.97469L4.68406 3.64531C4.62883 3.76313 4.51711 3.84438 4.38804 3.86063L1.47805 4.28797C0.826952 4.3893 0.288358 4.84844 0.085155 5.47532C-0.118048 6.10211 0.048905 6.78992 0.516717 7.25399L2.62672 9.33735ZM5.59875 37.6434C5.42664 37.3465 5.33469 37.0098 5.33211 36.6667V19.3334C5.33484 18.9902 5.42672 18.6536 5.59875 18.3567L16.682 28L5.59875 37.6434ZM7.33203 38.6666C7.08547 38.6652 6.84133 38.618 6.61203 38.5273L17.6973 28.8847L18.2487 29.3634C19.255 30.2297 20.7437 30.2297 21.75 29.3634L22.3 28.8854L33.3854 38.5273C33.1561 38.618 32.9119 38.6652 32.6654 38.6666H7.33203ZM34.3987 18.3566C34.5708 18.6536 34.6627 18.9902 34.6654 19.3333V36.6666C34.6627 37.0098 34.5709 37.3464 34.3987 37.6433L23.3154 28L34.3987 18.3566ZM32.6654 17.3334C32.9119 17.3348 33.1561 17.382 33.3854 17.4727L20.8754 28.3566C20.3714 28.789 19.6273 28.789 19.1234 28.3566L6.61203 17.4727C6.84133 17.382 7.08547 17.3348 7.33203 17.3334H12.4741L12.1448 19.272C11.9906 20.1509 12.3534 21.0403 13.0781 21.5607C13.7877 22.0774 14.7305 22.1422 15.5041 21.7273L19.5441 19.5807C19.828 19.4301 20.1682 19.4301 20.4521 19.5807L24.4921 21.7267C25.2655 22.1424 26.2086 22.0779 26.9181 21.5607C27.6429 21.0403 28.0056 20.1509 27.8515 19.272L27.5235 17.3334H32.6654ZM26.2687 5.88399C26.3125 5.73711 26.4372 5.62883 26.5887 5.60602L29.4941 5.18071C30.0622 5.09891 30.553 4.74117 30.8048 4.22539L32.1055 1.55875C32.1614 1.41578 32.3028 1.32485 32.4562 1.33344C32.6091 1.33172 32.7487 1.41992 32.8128 1.55875L34.1108 4.22141C34.3561 4.74047 34.8467 5.10078 35.4155 5.17938L38.3181 5.60602C38.4713 5.62813 38.598 5.73664 38.6434 5.88469C38.6953 6.03242 38.6562 6.1968 38.5434 6.30539L36.4401 8.38274C36.0318 8.78071 35.8453 9.35406 35.9414 9.9161L36.4414 12.8495C36.471 13.0054 36.4066 13.1642 36.2767 13.2555C36.1575 13.345 35.997 13.3567 35.866 13.2855L33.2547 11.8928C32.7518 11.6361 32.1559 11.638 31.6547 11.8981L29.0494 13.2841C28.92 13.3555 28.761 13.3451 28.642 13.2575C28.5113 13.1642 28.4477 13.0029 28.4794 12.8455L28.4987 12.7255L30.6366 10.6195C31.2687 10.0004 31.4962 9.07703 31.2242 8.23516C30.9522 7.39328 30.2275 6.77766 29.3527 6.64539L26.2947 6.20008C26.2447 6.10227 26.2353 5.98867 26.2687 5.88399ZM15.358 7.30133C16.1142 7.18899 16.7662 6.71078 17.1007 6.02336L19.1207 1.89C19.2821 1.55149 19.6237 1.33594 19.9987 1.33594C20.3737 1.33594 20.7154 1.55157 20.8767 1.89008L22.8967 6.02344C23.2312 6.71086 23.8832 7.18906 24.6394 7.30141L29.156 7.96407C29.5279 8.01602 29.8362 8.27852 29.9467 8.63742C30.0709 9.00055 29.974 9.40266 29.698 9.66945L26.4314 12.8888C25.8873 13.426 25.6398 14.195 25.768 14.9488L26.5394 19.4954C26.6094 19.8734 26.4532 20.2575 26.1394 20.4794C25.8419 20.6997 25.4435 20.727 25.1187 20.5494L21.0787 18.4027C20.4038 18.0441 19.5948 18.0441 18.92 18.4027L14.88 20.5501C14.5548 20.7262 14.1571 20.6987 13.8593 20.4794C13.5455 20.2575 13.3893 19.8733 13.4593 19.4954L14.2306 14.9488C14.3589 14.195 14.1113 13.426 13.5673 12.8888L10.3006 9.66945C10.0247 9.40274 9.92781 9.00055 10.052 8.63742C10.1623 8.27875 10.4703 8.01625 10.842 7.96407L15.358 7.30133ZM1.35406 5.88469C1.3989 5.73766 1.52406 5.6293 1.67609 5.60602L4.57406 5.18071C5.14422 5.10407 5.63719 4.74469 5.88476 4.22539L7.18344 1.55875C7.24812 1.41985 7.3882 1.33164 7.5414 1.33344C7.69242 1.33242 7.82976 1.42086 7.8914 1.55875L9.19875 4.23203C9.4489 4.74297 9.93515 5.0975 10.498 5.17938L13.4073 5.60602C13.5603 5.62758 13.6868 5.7361 13.7313 5.88399C13.7638 5.98766 13.7542 6.1 13.7047 6.19664L10.65 6.64531C9.77523 6.77758 9.05047 7.39321 8.77844 8.23508C8.5064 9.07695 8.73398 10.0002 9.36601 10.6194L11.504 12.7254L11.524 12.8494C11.5544 13.0056 11.4905 13.1652 11.3606 13.2573C11.242 13.3444 11.0838 13.3551 10.9546 13.2847L8.34258 11.8954C7.83805 11.6348 7.23844 11.6348 6.7339 11.8954L4.13187 13.2841C4.00062 13.3564 3.83922 13.3452 3.71922 13.2554C3.58953 13.1652 3.525 13.0072 3.55453 12.852L4.05383 9.91867C4.15094 9.35735 3.96601 8.78414 3.55914 8.38531L1.45273 6.30532C1.34133 6.19594 1.30289 6.03219 1.35406 5.88469Z" fill="#313131"/>
</svg>
