<svg width="35" height="40" viewBox="0 0 35 40" fill="none" xmlns="http://www.w3.org/2000/svg">
<path d="M17.9615 21.681C17.888 21.6651 17.8126 21.6622 17.7381 21.6734C16.992 21.5865 16.4291 20.9553 16.4278 20.2043C16.4278 19.8445 16.1361 19.5527 15.7762 19.5527C15.4163 19.5527 15.1246 19.8445 15.1246 20.2043C15.1265 21.4583 15.9652 22.5566 17.1743 22.8885V23.5401C17.1743 23.9 17.4661 24.1918 17.8259 24.1918C18.1858 24.1918 18.4775 23.9 18.4775 23.5401V22.928C19.8731 22.6359 20.8216 21.3361 20.6749 19.918C20.5279 18.4999 19.3331 17.4222 17.9074 17.4219C17.0903 17.4219 16.4278 16.7594 16.4278 15.9423C16.4278 15.1253 17.0903 14.4628 17.9074 14.4628C18.7245 14.4628 19.3869 15.1253 19.3869 15.9423C19.3869 16.3022 19.6787 16.594 20.0385 16.594C20.3984 16.594 20.6902 16.3022 20.6902 15.9423C20.6883 14.6257 19.7659 13.4901 18.4775 13.2184V12.6253C18.4775 12.2655 18.1858 11.9737 17.8259 11.9737C17.4661 11.9737 17.1743 12.2655 17.1743 12.6253V13.2582C15.8297 13.6254 14.9642 14.9308 15.1494 16.3124C15.3346 17.6939 16.5134 18.7251 17.9074 18.7248C18.7136 18.7248 19.3713 19.3704 19.386 20.1763C19.4009 20.9823 18.7671 21.6517 17.9615 21.681Z" fill="#313131"/>
<path d="M8.45801 18.1235C8.45801 23.3422 12.6885 27.5728 17.9073 27.5728C23.1261 27.5728 27.3566 23.3422 27.3566 18.1235C27.3566 12.9047 23.1261 8.67419 17.9073 8.67419C12.6911 8.67992 8.46405 12.9072 8.45801 18.1235ZM17.9073 9.97746C22.4063 9.97746 26.0533 13.6244 26.0533 18.1235C26.0533 22.6225 22.4063 26.2695 17.9073 26.2695C13.4082 26.2695 9.76127 22.6225 9.76127 18.1235C9.76636 13.6267 13.4105 9.98255 17.9073 9.97746Z" fill="#313131"/>
<path d="M30.5687 29.1793L25.4641 31.591C24.7594 30.2801 23.4074 29.4459 21.9196 29.4039L17.2074 29.2744C16.4612 29.2531 15.7291 29.0641 15.0657 28.7214L14.5862 28.4729C12.1311 27.1932 9.20485 27.1964 6.75233 28.4812L6.78224 27.3949C6.7921 27.035 6.5086 26.7353 6.14874 26.7255L0.981514 26.5832C0.621654 26.5734 0.322247 26.8569 0.312383 27.2167L0.000249766 38.556C-0.00961372 38.9158 0.273884 39.2156 0.633744 39.2254L5.80097 39.3677H5.81879C6.17197 39.3677 6.46088 39.0867 6.47042 38.7338L6.48538 38.1914L7.82777 37.4726C8.35468 37.1891 8.97067 37.1216 9.54626 37.2845L17.5625 39.5344C17.5765 39.5385 17.5905 39.5417 17.6048 39.5449C18.1842 39.6661 18.7747 39.7269 19.3665 39.7266C20.6202 39.7272 21.8591 39.4571 22.9985 38.934C23.0265 38.9213 23.0536 38.9063 23.0794 38.8894L34.7021 31.3715C34.9917 31.1841 35.0852 30.8039 34.9156 30.5035C34.0527 28.9724 32.1389 28.3892 30.5687 29.1793ZM1.32101 37.9406L1.59719 27.904L5.46147 28.0103L5.1853 38.0472L1.32101 37.9406ZM22.4115 37.7701C20.9959 38.409 19.4149 38.5853 17.8934 38.2744L9.8988 36.0303C8.99899 35.7761 8.03586 35.8814 7.21273 36.324L6.52674 36.6915L6.71033 30.0183C8.88413 28.5725 11.672 28.4239 13.9871 29.6301L14.4666 29.8786C15.3047 30.3113 16.229 30.55 17.1717 30.5773L21.8843 30.7068C23.2079 30.745 24.332 31.6875 24.6006 32.9844L17.5812 32.7906C17.2214 32.7807 16.922 33.0645 16.9118 33.4241C16.9019 33.7839 17.1857 34.0837 17.5453 34.0935L25.2917 34.3067H25.3098C25.6627 34.3064 25.9513 34.0254 25.9608 33.6729C25.9688 33.3897 25.9478 33.1062 25.8978 32.8275L31.1334 30.3536C31.1385 30.3514 31.1436 30.3489 31.1487 30.3463C31.8913 29.9706 32.7892 30.0962 33.4001 30.6616L22.4115 37.7701Z" fill="#313131"/>
<path d="M18.5586 6.84212V0.651631C18.5586 0.29177 18.2669 0 17.907 0C17.5471 0 17.2554 0.29177 17.2554 0.651631V6.84212C17.2554 7.20198 17.5471 7.49375 17.907 7.49375C18.2669 7.49375 18.5586 7.20198 18.5586 6.84212Z" fill="#313131"/>
<path d="M23.4458 6.84212V3.90978C23.4458 3.54992 23.1541 3.25815 22.7942 3.25815C22.4343 3.25815 22.1426 3.54992 22.1426 3.90978V6.84212C22.1426 7.20198 22.4343 7.49375 22.7942 7.49375C23.1541 7.49375 23.4458 7.20198 23.4458 6.84212Z" fill="#313131"/>
<path d="M13.6714 6.84212V3.90978C13.6714 3.54992 13.3797 3.25815 13.0198 3.25815C12.6599 3.25815 12.3682 3.54992 12.3682 3.90978V6.84212C12.3682 7.20198 12.6599 7.49375 13.0198 7.49375C13.3797 7.49375 13.6714 7.20198 13.6714 6.84212Z" fill="#313131"/>
</svg>
