<svg width="8" height="8" viewBox="0 0 8 8" fill="none" xmlns="http://www.w3.org/2000/svg">
<path d="M4.99995 4.33327C4.81563 4.33327 4.66664 4.48262 4.66664 4.66658V5.99994C4.66664 6.1836 4.51729 6.33325 4.33327 6.33325H3.33328V1.3333C3.33328 1.04864 3.15195 0.794304 2.87931 0.699639L2.78061 0.66662H4.33327C4.51729 0.66662 4.66664 0.816276 4.66664 0.999991V1.99998C4.66664 2.18394 4.81563 2.33329 4.99995 2.33329C5.18428 2.33329 5.33326 2.18394 5.33326 1.99998V0.999991C5.33326 0.448665 4.8846 0 4.33327 0H0.749993C0.737298 0 0.726678 0.00567622 0.714349 0.00732415C0.698297 0.00598139 0.682977 0 0.666681 0C0.299008 0 0 0.298947 0 0.66662V6.66656C0 6.95123 0.181334 7.20556 0.453975 7.30022L2.46 7.96892C2.52799 7.98991 2.59562 7.99992 2.66666 7.99992C3.03433 7.99992 3.33328 7.70092 3.33328 7.33324V6.99993H4.33327C4.8846 6.99993 5.33326 6.55127 5.33326 5.99994V4.66658C5.33326 4.48262 5.18428 4.33327 4.99995 4.33327Z" fill="#0166B0"/>
<path d="M7.90298 3.09763L6.56962 1.76433C6.47434 1.66899 6.33097 1.6403 6.20634 1.69194C6.08201 1.74363 6.00066 1.86528 6.00066 1.99998V2.99997H4.66736C4.48334 2.99997 4.33398 3.14926 4.33398 3.33328C4.33398 3.5173 4.48334 3.66659 4.66736 3.66659H6.00066V4.66658C6.00066 4.80128 6.08201 4.92293 6.20634 4.97462C6.33097 5.02626 6.47434 4.99757 6.56962 4.9023L7.90298 3.56893C8.03329 3.43863 8.03329 3.22793 7.90298 3.09763Z" fill="#0166B0"/>
</svg>
