<svg width="10" height="8" viewBox="0 0 10 8" fill="none" xmlns="http://www.w3.org/2000/svg">
<path d="M8.41755 0.782904C7.94427 0.27805 7.29485 0 6.5888 0C6.06104 0 5.57771 0.1641 5.1522 0.487703C4.9375 0.651048 4.74296 0.85089 4.57143 1.08414C4.39997 0.850959 4.20536 0.651048 3.99058 0.487703C3.56515 0.1641 3.08182 0 2.55406 0C1.84801 0 1.19852 0.27805 0.725237 0.782904C0.257603 1.28186 0 1.9635 0 2.70236C0 3.46283 0.288156 4.15895 0.906808 4.89315C1.46024 5.54989 2.25565 6.21658 3.17676 6.98858C3.49128 7.25222 3.8478 7.55106 4.21798 7.86938C4.31578 7.95362 4.44127 8 4.57143 8C4.70152 8 4.82708 7.95362 4.92474 7.86952C5.29492 7.55113 5.65165 7.25215 5.96631 6.98837C6.88728 6.21651 7.68269 5.54989 8.23612 4.89308C8.85477 4.15895 9.14286 3.46283 9.14286 2.70229C9.14286 1.9635 8.88525 1.28186 8.41755 0.782904Z" fill="#0166B0"/>
</svg>
