<svg width="8" height="8" viewBox="0 0 8 8" fill="none" xmlns="http://www.w3.org/2000/svg">
<path d="M6.75 4.71875H1.25C0.56075 4.71875 0 5.2795 0 5.96875C0 6.658 0.56075 7.21875 1.25 7.21875H6.75C7.43925 7.21875 8 6.658 8 5.96875C8 5.2795 7.43925 4.71875 6.75 4.71875ZM1.65625 6.35938C1.44052 6.35938 1.26562 6.18448 1.26562 5.96875C1.26562 5.75302 1.44052 5.57812 1.65625 5.57812C1.87198 5.57812 2.04688 5.75302 2.04688 5.96875C2.04688 6.18448 1.87198 6.35938 1.65625 6.35938ZM3.21875 6.35938C3.00302 6.35938 2.82812 6.18448 2.82812 5.96875C2.82812 5.75302 3.00302 5.57812 3.21875 5.57812C3.43448 5.57812 3.60938 5.75302 3.60938 5.96875C3.60938 6.18448 3.43448 6.35938 3.21875 6.35938ZM4.78125 6.35938C4.56552 6.35938 4.39062 6.18448 4.39062 5.96875C4.39062 5.75302 4.56552 5.57812 4.78125 5.57812C4.99698 5.57812 5.17188 5.75302 5.17188 5.96875C5.17188 6.18448 4.99698 6.35938 4.78125 6.35938ZM6.34375 6.35938C6.12802 6.35938 5.95312 6.18448 5.95312 5.96875C5.95312 5.75302 6.12802 5.57812 6.34375 5.57812C6.55948 5.57812 6.73438 5.75302 6.73438 5.96875C6.73438 6.18448 6.55948 6.35938 6.34375 6.35938Z" fill="#0166B0"/>
<path d="M5.48438 1.59375H5.17188V1.17188C5.17188 0.525703 4.64617 0 4 0C3.35383 0 2.82812 0.525703 2.82812 1.17188V1.59375H2.51562C2.38619 1.59375 2.28125 1.69869 2.28125 1.82812V3.6875C2.28125 3.81694 2.38619 3.92188 2.51562 3.92188H5.48438C5.61381 3.92188 5.71875 3.81694 5.71875 3.6875V1.82812C5.71875 1.69869 5.61381 1.59375 5.48438 1.59375ZM4.23438 2.83013V2.92188C4.23438 3.05131 4.12944 3.15625 4 3.15625C3.87056 3.15625 3.76562 3.05131 3.76562 2.92188V2.83013C3.67466 2.79792 3.60938 2.71137 3.60938 2.60938C3.60938 2.47994 3.71431 2.375 3.84375 2.375H4.15625C4.28569 2.375 4.39062 2.47994 4.39062 2.60938C4.39062 2.71137 4.32534 2.79792 4.23438 2.83013ZM4.70312 1.59375H3.29688V1.17188C3.29688 0.784172 3.6123 0.46875 4 0.46875C4.3877 0.46875 4.70312 0.784172 4.70312 1.17188V1.59375Z" fill="#0166B0"/>
</svg>
