<svg width="8" height="7" viewBox="0 0 8 7" fill="none" xmlns="http://www.w3.org/2000/svg">
<path d="M3.5 1.99976V1.49976H0.5C0.2245 1.49976 0 1.72426 0 1.99976V2.99976H3.6055C3.536 2.69426 3.5 2.36526 3.5 1.99976Z" fill="#0166B0"/>
<path d="M7.9795 3.99976C7.6385 4.52526 7.1185 4.97226 6.3735 5.40026C6.259 5.46576 6.13 5.49976 6 5.49976C5.87 5.49976 5.741 5.46576 5.628 5.40126C4.883 4.97226 4.363 4.52476 4.0215 3.99976H0V6.49976C0 6.77576 0.2245 6.99976 0.5 6.99976H7.5C7.776 6.99976 8 6.77576 8 6.49976V3.99976H7.9795ZM2.25 5.49976H1.25C1.112 5.49976 1 5.38776 1 5.24976C1 5.11176 1.112 4.99976 1.25 4.99976H2.25C2.388 4.99976 2.5 5.11176 2.5 5.24976C2.5 5.38776 2.388 5.49976 2.25 5.49976Z" fill="#0166B0"/>
<path d="M7.8485 0.77025L6.0985 0.02025C6.035 -0.00675 5.9645 -0.00675 5.901 0.02025L4.151 0.77025C4.0595 0.80925 4 0.89975 4 0.99975V1.99975C4 3.37525 4.5085 4.17925 5.8755 4.96675C5.914 4.98875 5.957 4.99975 6 4.99975C6.043 4.99975 6.086 4.98875 6.1245 4.96675C7.4915 4.18125 8 3.37725 8 1.99975V0.99975C8 0.89975 7.9405 0.80925 7.8485 0.77025ZM6.9455 1.90625L5.9455 3.15625C5.8975 3.21525 5.8255 3.24975 5.75 3.24975C5.7465 3.24975 5.7425 3.24975 5.7395 3.24975C5.66 3.24625 5.5865 3.20525 5.542 3.13875L5.042 2.38875C4.9655 2.27375 4.9965 2.11875 5.1115 2.04225C5.2255 1.96625 5.381 1.99625 5.458 2.11175L5.7685 2.57725L6.5545 1.59425C6.641 1.48675 6.7985 1.46975 6.906 1.55525C7.014 1.64075 7.031 1.79825 6.9455 1.90625Z" fill="#0166B0"/>
</svg>
