<svg width="8" height="10" viewBox="0 0 8 10" fill="none" xmlns="http://www.w3.org/2000/svg">
<path d="M6.64546 0.258093C6.55339 0.0988952 6.38197 0 6.19819 0H4.27734V2.2721H7.81032L6.64546 0.258093Z" fill="#0166B0"/>
<path d="M3.74053 0H1.80156C1.6174 0 1.446 0.0990747 1.35392 0.258631L0.193359 2.2721H3.74051V0H3.74053Z" fill="#0166B0"/>
<path d="M0 2.81055V8.55316C0 8.90225 0.284126 9.1862 0.63322 9.1862H7.36678C7.71587 9.1862 8 8.90225 8 8.55316V2.81055H0ZM5.22211 5.22551L3.82966 6.61796C3.77707 6.67055 3.70814 6.69694 3.63923 6.69694C3.57031 6.69694 3.50138 6.67055 3.44897 6.61796L2.79619 5.96534C2.6912 5.86035 2.6912 5.68983 2.79619 5.58465C2.90137 5.47948 3.07189 5.47948 3.17706 5.58465L3.63924 6.04701L4.84143 4.84482C4.94661 4.73965 5.11713 4.73965 5.22212 4.84482C5.3273 4.95 5.3273 5.12034 5.22211 5.22551Z" fill="#0166B0"/>
</svg>
