<svg width="23" height="23" viewBox="0 0 23 23" fill="none" xmlns="http://www.w3.org/2000/svg">
<path d="M5.39062 11.5C5.39062 10.3605 5.70458 9.29299 6.25003 8.37896V4.50185H2.37291C0.834109 6.50033 0 8.93595 0 11.5C0 14.0641 0.834109 16.4997 2.37291 18.4982H6.25003V14.621C5.70458 13.707 5.39062 12.6395 5.39062 11.5Z" fill="#FBBD00"/>
<path d="M11.5 17.6094L8.80469 20.3047L11.5 23C14.0641 23 16.4997 22.1659 18.4982 20.6271V16.7541H14.6252C13.7031 17.3015 12.6312 17.6094 11.5 17.6094Z" fill="#0F9D58"/>
<path d="M6.25016 14.621L2.37305 18.4982C2.67771 18.8938 3.00946 19.2727 3.36843 19.6318C5.54049 21.8038 8.42838 23 11.5001 23V17.6094C9.27094 17.6094 7.31715 16.4091 6.25016 14.621Z" fill="#31AA52"/>
<path d="M23 11.5C23 10.8003 22.9367 10.0994 22.8117 9.41664L22.7106 8.86415H11.5V14.2548H16.9559C16.426 15.3087 15.6114 16.1685 14.6251 16.7541L18.4981 20.6271C18.8938 20.3225 19.2727 19.9907 19.6317 19.6317C21.8038 17.4596 23 14.5717 23 11.5Z" fill="#3C79E6"/>
<path d="M15.82 7.18L16.2964 7.65644L20.1082 3.84473L19.6318 3.36829C17.4597 1.19622 14.5718 0 11.5 0L8.80469 2.69531L11.5 5.39062C13.1318 5.39062 14.666 6.02609 15.82 7.18Z" fill="#CF2D48"/>
<path d="M11.5002 5.39062V0C8.42843 0 5.54053 1.19622 3.36843 3.36824C3.00946 3.72721 2.67771 4.10613 2.37305 4.50185L6.25016 8.37896C7.31719 6.59094 9.27098 5.39062 11.5002 5.39062Z" fill="#EB4132"/>
</svg>
