<svg width="11" height="11" viewBox="0 0 11 11" fill="none" xmlns="http://www.w3.org/2000/svg">
<path d="M9.03556 5.49991C8.81859 5.49991 8.6427 5.6758 8.6427 5.89277V9.82127C8.6427 10.0382 8.46681 10.2141 8.24984 10.2141H1.17855C0.961579 10.2141 0.785694 10.0382 0.785694 9.82127V1.96426C0.785694 1.74728 0.961579 1.5714 1.17855 1.5714H5.89276C6.10973 1.5714 6.28562 1.39551 6.28562 1.17854C6.28562 0.961568 6.10973 0.785706 5.89276 0.785706H1.17855C0.527655 0.785706 0 1.31336 0 1.96426V9.82127C0 10.4722 0.527655 10.9998 1.17855 10.9998H8.24986C8.90076 10.9998 9.42842 10.4722 9.42842 9.82127V5.89275C9.42842 5.6758 9.25253 5.49991 9.03556 5.49991Z" fill="#0166B0"/>
<path d="M10.5597 0.440536C10.2776 0.15842 9.89505 -3.98219e-05 9.49612 6.21528e-06C9.09695 -0.00114471 8.71397 0.157591 8.43268 0.440789L3.25803 5.615C3.2151 5.65825 3.18272 5.71083 3.16336 5.7686L2.37766 8.12571C2.30909 8.33156 2.42039 8.55402 2.62624 8.62257C2.66618 8.63587 2.708 8.64266 2.75008 8.64271C2.79225 8.64264 2.83417 8.63587 2.87422 8.62268L5.23133 7.83699C5.28922 7.81765 5.34181 7.7851 5.38493 7.74192L10.5596 2.56729C11.1469 1.98004 11.1469 1.02786 10.5597 0.440536Z" fill="#0166B0"/>
</svg>
