<svg width="24" height="25" viewBox="0 0 24 25" fill="none" xmlns="http://www.w3.org/2000/svg">
<ellipse cx="12" cy="12.9141" rx="12" ry="11.9588" fill="#E5E5E5"/>
<path d="M16.7115 15.1334L15.1732 13.5868C14.6238 13.0345 13.6899 13.2554 13.4701 13.9735C13.3053 14.4706 12.7559 14.7468 12.2614 14.6363C11.1626 14.3601 9.67926 12.924 9.40456 11.7641C9.23974 11.2669 9.56938 10.7146 10.0638 10.5489C10.7781 10.3279 10.9978 9.38893 10.4484 8.83658L8.91011 7.28999C8.47059 6.90334 7.81131 6.90334 7.42673 7.28999L6.38288 8.33946C5.33902 9.44417 6.49276 12.3716 9.07493 14.9677C11.6571 17.5638 14.5689 18.779 15.6677 17.6743L16.7115 16.6248C17.0961 16.1829 17.0961 15.5201 16.7115 15.1334Z" fill="#313131"/>
</svg>
