<svg width="19" height="15" viewBox="0 0 19 15" fill="none" xmlns="http://www.w3.org/2000/svg">
<path d="M14.4806 0H3.73579C1.67582 0 0 1.67582 0 3.73579V9.50569C0 11.1494 1.07918 12.581 2.64299 13.0393L4.44723 14.8436C4.54743 14.9437 4.68308 15 4.8247 15C4.96618 15 5.10196 14.9437 5.20203 14.8436L6.85715 13.1884H14.4806C16.5406 13.1884 18.2164 11.5126 18.2164 9.4526V3.73579C18.2164 1.67582 16.5406 0 14.4806 0ZM17.1491 9.4526C17.1491 10.924 15.952 12.121 14.4806 12.121H6.63617C6.49469 12.121 6.3589 12.1773 6.25884 12.2774L4.8247 13.7115L3.29731 12.1841C3.22879 12.1156 3.1429 12.067 3.04881 12.0436C1.88221 11.7533 1.06737 10.7097 1.06737 9.50569V3.73579C1.06737 2.26441 2.26441 1.06737 3.73579 1.06737H14.4806C15.952 1.06737 17.1491 2.26441 17.1491 3.73579V9.4526Z" fill="#0166B0"/>
<path d="M12.4965 5.11719H5.71923C5.42445 5.11719 5.18555 5.35623 5.18555 5.65087C5.18555 5.94565 5.42445 6.18456 5.71923 6.18456H12.4965C12.7912 6.18456 13.0301 5.94565 13.0301 5.65087C13.0301 5.35623 12.7912 5.11719 12.4965 5.11719Z" fill="#0166B0"/>
<path d="M12.4965 7.00391H5.71923C5.42445 7.00391 5.18555 7.24281 5.18555 7.53759C5.18555 7.83237 5.42445 8.07127 5.71923 8.07127H12.4965C12.7912 8.07127 13.0301 7.83237 13.0301 7.53759C13.0301 7.24281 12.7912 7.00391 12.4965 7.00391Z" fill="#0166B0"/>
</svg>
