<svg width="14" height="15" viewBox="0 0 14 15" fill="none" xmlns="http://www.w3.org/2000/svg">
<path d="M13.1646 13.6626L9.86921 9.94962C10.7165 8.85844 11.1808 7.48552 11.1808 6.05624C11.1808 2.71688 8.67287 0 5.59038 0C2.50789 0 0 2.71688 0 6.05624C0 9.3956 2.50789 12.1125 5.59038 12.1125C6.74759 12.1125 7.85035 11.7344 8.79318 11.0166L12.1136 14.7578C12.2524 14.9139 12.4391 15 12.6391 15C12.8285 15 13.0081 14.9218 13.1444 14.7796C13.4342 14.4776 13.4434 13.9768 13.1646 13.6626ZM5.59038 1.57989C7.86882 1.57989 9.7224 3.58793 9.7224 6.05624C9.7224 8.52456 7.86882 10.5326 5.59038 10.5326C3.31194 10.5326 1.45836 8.52456 1.45836 6.05624C1.45836 3.58793 3.31194 1.57989 5.59038 1.57989Z" fill="#313131"/>
</svg>
