<svg width="22" height="15" viewBox="0 0 22 15" fill="none" xmlns="http://www.w3.org/2000/svg">
<path d="M18.8235 6.4509C19.1175 6.57651 19.4973 6.66509 19.9641 6.71665C20.1783 6.7348 20.3845 6.74278 20.5885 6.74278C20.8252 6.74278 21.0474 6.72972 21.25 6.70358C20.9951 6.94245 20.667 7.14939 20.2705 7.32582C19.8697 7.50298 19.3542 7.59084 18.7182 7.59084C18.427 8.6785 17.8876 9.65579 17.099 10.5155C16.3134 11.378 15.3782 12.0903 14.2949 12.6523C13.2116 13.2143 12.0216 13.6049 10.7183 13.8264C9.98497 13.9585 9.25236 14.0239 8.51612 14.0239C7.96067 14.0239 7.40305 13.9839 6.84833 13.9048C5.56245 13.7378 4.3274 13.3457 3.13228 12.7307C1.93789 12.1172 0.894523 11.2394 0 10.0994C0.505347 10.5496 1.09492 10.8988 1.76654 11.1413C2.43816 11.3831 3.13591 11.5066 3.86053 11.5066C4.58588 11.5066 5.29889 11.3737 5.9981 11.1145C6.69513 10.8545 7.32245 10.4487 7.88153 9.90048C7.77552 9.91718 7.66952 9.92662 7.56133 9.92662C7.35876 9.92662 7.17361 9.89104 7.00661 9.82061C6.74014 9.7146 6.55645 9.57012 6.45697 9.38932C6.35387 9.20853 6.35387 9.00886 6.45697 8.79176C6.55645 8.57539 6.81493 8.38371 7.23169 8.21671C7.08938 8.23196 6.9507 8.2414 6.82074 8.2414C6.61526 8.2414 6.42575 8.22398 6.25222 8.19058C5.95744 8.13612 5.70476 8.04536 5.48839 7.9183C5.26839 7.78833 5.09123 7.64965 4.94892 7.49935C4.80806 7.34833 4.68826 7.18787 4.59024 7.02014C4.76885 6.86113 4.96634 6.73988 5.1878 6.65783C5.40925 6.57361 5.70041 6.52133 6.06272 6.50463C5.25097 6.3282 4.67083 6.06463 4.32667 5.72192C3.98179 5.37704 3.76251 4.97988 3.67684 4.52899C3.91644 4.49196 4.15387 4.45057 4.39855 4.40265C4.64034 4.35255 4.8342 4.34747 4.97651 4.38159C4.28456 4.03671 3.80463 3.63446 3.52872 3.17486C3.29129 2.76898 3.17149 2.38707 3.17149 2.03347C3.17149 1.98918 3.17585 1.94126 3.18529 1.88753C4.43195 2.32172 5.48186 2.72034 6.33427 3.08119C7.18886 3.44496 7.94688 3.79856 8.60978 4.14489C8.86609 4.24799 9.12094 4.40701 9.37942 4.62047L10.2151 5.33856C10.393 4.86806 10.5934 4.40265 10.8229 3.93796C11.0559 3.47255 11.3006 3.02819 11.5613 2.60416C11.8219 2.18086 12.1145 1.79024 12.442 1.43664C12.7695 1.08449 13.1419 0.794062 13.5558 0.561719C13.5391 0.763567 13.4345 0.964689 13.2392 1.15855C13.4788 0.956703 13.7366 0.793336 14.0139 0.666999C14.2949 0.543567 14.589 0.46152 14.8969 0.416504C14.8613 0.619805 14.7168 0.786801 14.4583 0.913864C14.202 1.04238 13.9784 1.14185 13.7831 1.21155C13.8528 1.19485 13.9936 1.14839 14.1998 1.07433C14.4082 0.998815 14.6297 0.929112 14.8642 0.868848C15.1009 0.806406 15.3107 0.764293 15.5024 0.749772C15.6912 0.73162 15.8052 0.765019 15.8393 0.855053C15.8916 0.961059 15.8611 1.05182 15.7471 1.1266C15.6331 1.20212 15.4922 1.26456 15.3281 1.32047C15.167 1.37274 15.0007 1.41558 14.8395 1.45261C14.6747 1.48891 14.5672 1.51505 14.5149 1.53103L14.0234 1.70311C14.12 1.69367 14.218 1.69004 14.3145 1.69004C14.7204 1.69004 15.1205 1.75103 15.5082 1.87519C15.9867 2.02621 16.4245 2.25638 16.8224 2.56713C17.2188 2.87426 17.5695 3.23803 17.8687 3.65407C18.1693 4.07011 18.3907 4.51592 18.5323 4.99295L18.586 5.20569C18.6013 5.27612 18.6209 5.35453 18.6383 5.44239C18.8155 5.49757 19.0268 5.52952 19.2765 5.54331C19.5234 5.55565 19.7681 5.54331 20.0128 5.50338C20.2538 5.46417 20.4753 5.41407 20.6728 5.35163C20.8732 5.28991 21.0315 5.23182 21.1454 5.17955C21.0046 5.52516 20.7323 5.81414 20.3293 6.04793C19.9249 6.28028 19.4225 6.4146 18.8235 6.4509Z" fill="white"/>
</svg>
